<svg xmlns="http://www.w3.org/2000/svg" xmlns:xlink="http://www.w3.org/1999/xlink" viewBox="0 0 2116.8 1385"><defs><style>.cls-1{isolation:isolate;}.cls-2{fill:url(#linear-gradient);}.cls-3{fill:#bdd0fb;}.cls-4{fill:url(#linear-gradient-2);}.cls-5{fill:url(#linear-gradient-3);}.cls-6{fill:#91b3fa;}.cls-7{fill:url(#linear-gradient-4);}.cls-8{fill:url(#linear-gradient-5);}.cls-9{opacity:0.22;}.cls-10{opacity:0.68;}.cls-11{fill:#fff;mix-blend-mode:soft-light;}.cls-12{fill:url(#linear-gradient-6);}.cls-13{fill:url(#linear-gradient-7);}.cls-14{fill:url(#linear-gradient-8);}.cls-15{fill:url(#linear-gradient-9);}.cls-16{fill:url(#linear-gradient-10);}.cls-17{fill:url(#linear-gradient-11);}.cls-18{fill:url(#linear-gradient-12);}.cls-19{fill:url(#linear-gradient-13);}.cls-20{fill:url(#linear-gradient-14);}.cls-21{fill:url(#linear-gradient-15);}.cls-22{fill:url(#linear-gradient-16);}.cls-23{fill:url(#linear-gradient-17);}.cls-24{fill:url(#linear-gradient-18);}.cls-25{fill:url(#linear-gradient-19);}.cls-26{fill:url(#linear-gradient-20);}.cls-27{fill:url(#linear-gradient-21);}.cls-28{fill:url(#linear-gradient-22);}.cls-29{fill:url(#linear-gradient-23);}.cls-30{fill:#7d97f4;}.cls-31{fill:url(#linear-gradient-24);}.cls-32{fill:url(#linear-gradient-25);}.cls-33{fill:url(#linear-gradient-26);}.cls-34{fill:url(#linear-gradient-27);}.cls-35{fill:url(#linear-gradient-28);}.cls-36{fill:url(#linear-gradient-29);}.cls-37{fill:url(#linear-gradient-30);}.cls-38{fill:url(#linear-gradient-31);}.cls-39{fill:url(#linear-gradient-32);}.cls-40{fill:url(#linear-gradient-33);}.cls-41{fill:url(#linear-gradient-34);}.cls-42{fill:url(#linear-gradient-35);}.cls-43{fill:url(#linear-gradient-36);}.cls-44{fill:url(#linear-gradient-37);}.cls-45{fill:url(#linear-gradient-38);}.cls-46{fill:url(#linear-gradient-39);}.cls-47{fill:url(#linear-gradient-40);}.cls-48{fill:url(#linear-gradient-41);}.cls-49{fill:url(#linear-gradient-42);}.cls-50{fill:url(#linear-gradient-43);}.cls-51{fill:url(#linear-gradient-44);}.cls-52{fill:url(#linear-gradient-45);}.cls-53{fill:url(#linear-gradient-46);}.cls-54{fill:url(#linear-gradient-47);}.cls-55{fill:url(#linear-gradient-48);}.cls-56{fill:url(#linear-gradient-49);}.cls-57{fill:url(#linear-gradient-50);}.cls-58{fill:url(#linear-gradient-51);}.cls-59{fill:url(#linear-gradient-52);}.cls-60{fill:url(#linear-gradient-53);}.cls-61{fill:url(#linear-gradient-54);}.cls-62{fill:url(#linear-gradient-55);}.cls-63{fill:url(#linear-gradient-56);}.cls-64{fill:url(#linear-gradient-57);}.cls-65{fill:url(#linear-gradient-58);}.cls-66{fill:url(#linear-gradient-59);}.cls-67{fill:url(#linear-gradient-60);}.cls-68{fill:url(#linear-gradient-61);}.cls-69{fill:url(#linear-gradient-62);}.cls-70{fill:url(#linear-gradient-63);}.cls-71{fill:url(#linear-gradient-64);}.cls-72{fill:url(#linear-gradient-65);}.cls-73{fill:url(#linear-gradient-66);}.cls-74{fill:url(#linear-gradient-67);}.cls-75{fill:url(#linear-gradient-68);}.cls-76{fill:url(#linear-gradient-69);}.cls-77{fill:url(#linear-gradient-70);}.cls-78{fill:url(#linear-gradient-71);}.cls-79{fill:url(#linear-gradient-72);}.cls-80{fill:url(#linear-gradient-73);}.cls-81{fill:url(#linear-gradient-74);}.cls-82{fill:url(#linear-gradient-75);}.cls-83{fill:url(#linear-gradient-76);}.cls-84{fill:url(#linear-gradient-77);}.cls-85{fill:url(#linear-gradient-78);}.cls-86{fill:url(#linear-gradient-79);}.cls-87{fill:url(#linear-gradient-80);}.cls-88{fill:url(#linear-gradient-81);}.cls-89{fill:url(#linear-gradient-82);}.cls-90{fill:url(#linear-gradient-83);}.cls-91{fill:url(#linear-gradient-84);}.cls-92{fill:url(#linear-gradient-85);}.cls-93{fill:url(#linear-gradient-86);}.cls-94{fill:url(#linear-gradient-87);}.cls-95{fill:url(#linear-gradient-88);}.cls-96{fill:url(#linear-gradient-89);}.cls-97{fill:url(#linear-gradient-90);}.cls-98{fill:url(#linear-gradient-91);}.cls-99{fill:url(#linear-gradient-92);}.cls-100{fill:url(#linear-gradient-93);}.cls-101{fill:url(#linear-gradient-94);}.cls-102{fill:url(#linear-gradient-95);}.cls-103{fill:url(#linear-gradient-96);}.cls-104{fill:url(#linear-gradient-97);}.cls-105{fill:url(#linear-gradient-98);}.cls-106{fill:url(#linear-gradient-99);}.cls-107{fill:url(#linear-gradient-100);}.cls-108{fill:url(#linear-gradient-101);}.cls-109{fill:url(#linear-gradient-102);}.cls-110{fill:url(#linear-gradient-103);}.cls-111{fill:url(#linear-gradient-104);}.cls-112{fill:url(#linear-gradient-105);}.cls-113{fill:url(#linear-gradient-106);}.cls-114{fill:url(#linear-gradient-107);}.cls-115{fill:url(#linear-gradient-108);}.cls-116{fill:url(#linear-gradient-109);}.cls-117{fill:url(#linear-gradient-110);}.cls-118{fill:url(#linear-gradient-111);}.cls-119{fill:url(#linear-gradient-112);}.cls-120{fill:url(#linear-gradient-113);}.cls-121{fill:url(#linear-gradient-114);}.cls-122{fill:url(#linear-gradient-115);}.cls-123{fill:url(#linear-gradient-116);}.cls-124{fill:url(#linear-gradient-117);}.cls-125{fill:url(#linear-gradient-118);}.cls-126{fill:url(#linear-gradient-119);}.cls-127{fill:url(#linear-gradient-120);}</style><linearGradient id="linear-gradient" x1="2458.27" y1="383.12" x2="2051.98" y2="725.74" gradientTransform="matrix(1.1, 0.12, -0.1, 0.99, -337.73, -398.4)" gradientUnits="userSpaceOnUse"><stop offset="0" stop-color="#dae3fe"/><stop offset="1" stop-color="#e9effd"/></linearGradient><linearGradient id="linear-gradient-2" x1="1564.43" y1="878.51" x2="1156.7" y2="1127.26" gradientTransform="matrix(1, 0, 0, 1, 0, 0)" xlink:href="#linear-gradient"/><linearGradient id="linear-gradient-3" x1="5498.75" y1="-932.24" x2="5032.58" y2="-539.13" gradientTransform="matrix(-1.09, 0.19, -0.17, -0.99, 5723.24, -851.6)" xlink:href="#linear-gradient"/><linearGradient id="linear-gradient-4" x1="117.42" y1="749.25" x2="541.81" y2="749.25" gradientTransform="matrix(1, 0, 0, 1, 0, 0)" xlink:href="#linear-gradient"/><linearGradient id="linear-gradient-5" x1="1121.72" y1="537.2" x2="858.72" y2="-63.39" gradientTransform="translate(1693.95 -576) rotate(87.49)" gradientUnits="userSpaceOnUse"><stop offset="0" stop-color="#4042e2"/><stop offset="1" stop-color="#4f52ff"/></linearGradient><linearGradient id="linear-gradient-6" x1="990.63" y1="1038.19" x2="1235.43" y2="1038.19" gradientUnits="userSpaceOnUse"><stop offset="0" stop-color="#ff928e"/><stop offset="1" stop-color="#feb3b1"/></linearGradient><linearGradient id="linear-gradient-7" x1="127.41" y1="1096.04" x2="893.96" y2="1096.04" gradientUnits="userSpaceOnUse"><stop offset="0" stop-color="#09005d"/><stop offset="1" stop-color="#1a0f91"/></linearGradient><linearGradient id="linear-gradient-8" x1="1302.12" y1="1096.04" x2="2068.67" y2="1096.04" xlink:href="#linear-gradient-7"/><linearGradient id="linear-gradient-9" x1="1280.38" y1="1364.59" x2="2099.49" y2="805.87" gradientUnits="userSpaceOnUse"><stop offset="0" stop-color="#fe7062"/><stop offset="1" stop-color="#ff928e"/></linearGradient><linearGradient id="linear-gradient-10" x1="679.78" y1="983" x2="250.74" y2="1622.06" xlink:href="#linear-gradient-9"/><linearGradient id="linear-gradient-11" x1="1142.55" y1="803.66" x2="758.51" y2="994.7" xlink:href="#linear-gradient-6"/><linearGradient id="linear-gradient-12" x1="1136.92" y1="755.75" x2="1080.28" y2="814.9" xlink:href="#linear-gradient-6"/><linearGradient id="linear-gradient-13" x1="1144.37" y1="801.4" x2="760.33" y2="992.43" xlink:href="#linear-gradient-6"/><linearGradient id="linear-gradient-14" x1="842.9" y1="725.46" x2="159.91" y2="1626.3" xlink:href="#linear-gradient-9"/><linearGradient id="linear-gradient-15" x1="738.81" y1="683.58" x2="641.81" y2="835.58" xlink:href="#linear-gradient-6"/><linearGradient id="linear-gradient-16" x1="1250.83" y1="730.34" x2="1019.8" y2="934.36" xlink:href="#linear-gradient-6"/><linearGradient id="linear-gradient-17" x1="992.87" y1="102.5" x2="881.86" y2="360.53" gradientUnits="userSpaceOnUse"><stop offset="0" stop-color="#e1473d"/><stop offset="1" stop-color="#e9605a"/></linearGradient><linearGradient id="linear-gradient-18" x1="1004.13" y1="107.35" x2="893.12" y2="365.38" xlink:href="#linear-gradient-17"/><linearGradient id="linear-gradient-19" x1="877.65" y1="613.08" x2="796.65" y2="656.08" xlink:href="#linear-gradient-6"/><linearGradient id="linear-gradient-20" x1="654.63" y1="574.62" x2="793.99" y2="754.04" xlink:href="#linear-gradient-7"/><linearGradient id="linear-gradient-21" x1="866.36" y1="591.81" x2="785.36" y2="634.81" xlink:href="#linear-gradient-6"/><linearGradient id="linear-gradient-22" x1="986.2" y1="1100.09" x2="1046.52" y2="1100.09" xlink:href="#linear-gradient-6"/><linearGradient id="linear-gradient-23" x1="1538.36" y1="793.35" x2="1499.11" y2="675.58" xlink:href="#linear-gradient-6"/><linearGradient id="linear-gradient-24" x1="2032.84" y1="604.77" x2="1888.83" y2="874.8" xlink:href="#linear-gradient-7"/><linearGradient id="linear-gradient-25" x1="1776.69" y1="1136.37" x2="1649.11" y2="1381.71" xlink:href="#linear-gradient-6"/><linearGradient id="linear-gradient-26" x1="3178.3" y1="3698.34" x2="3037.21" y2="3885" gradientTransform="matrix(-0.69, -0.73, -0.73, 0.69, 6378.64, 403.46)" xlink:href="#linear-gradient-6"/><linearGradient id="linear-gradient-27" x1="3070.55" y1="3743.17" x2="3239.09" y2="3743.17" gradientTransform="matrix(-0.69, -0.73, -0.73, 0.69, 6378.64, 403.46)" xlink:href="#linear-gradient-7"/><linearGradient id="linear-gradient-28" x1="2971.66" y1="3846.16" x2="3084.83" y2="3730.05" gradientTransform="matrix(-0.69, -0.73, -0.73, 0.69, 6378.64, 403.46)" xlink:href="#linear-gradient-6"/><linearGradient id="linear-gradient-29" x1="836.89" y1="739.1" x2="788.88" y2="967.13" xlink:href="#linear-gradient-7"/><linearGradient id="linear-gradient-30" x1="1543.1" y1="828.31" x2="1510.09" y2="1155.34" xlink:href="#linear-gradient-7"/><linearGradient id="linear-gradient-31" x1="1338.19" y1="725.7" x2="1348.57" y2="725.7" xlink:href="#linear-gradient-9"/><linearGradient id="linear-gradient-32" x1="920.05" y1="654.51" x2="1321.5" y2="654.51" xlink:href="#linear-gradient-9"/><linearGradient id="linear-gradient-33" x1="922.48" y1="492.27" x2="927.87" y2="492.27" xlink:href="#linear-gradient-9"/><linearGradient id="linear-gradient-34" x1="1023.41" y1="323.72" x2="1034.22" y2="323.72" xlink:href="#linear-gradient-9"/><linearGradient id="linear-gradient-35" x1="1053.44" y1="413.36" x2="1435.11" y2="413.36" xlink:href="#linear-gradient-9"/><linearGradient id="linear-gradient-36" x1="1425.03" y1="582.1" x2="1430.79" y2="582.1" xlink:href="#linear-gradient-9"/><linearGradient id="linear-gradient-37" x1="1128.57" y1="490.05" x2="1731.12" y2="1553.08" gradientTransform="translate(-4.85 -248.29) rotate(4.55)" xlink:href="#linear-gradient-9"/><linearGradient id="linear-gradient-38" x1="1382.04" y1="-209.55" x2="1286.03" y2="135.48" xlink:href="#linear-gradient-6"/><linearGradient id="linear-gradient-39" x1="1377.18" y1="-210.91" x2="1281.17" y2="134.13" xlink:href="#linear-gradient-6"/><linearGradient id="linear-gradient-40" x1="772.59" y1="211.86" x2="1110.21" y2="807.5" xlink:href="#linear-gradient-9"/><linearGradient id="linear-gradient-41" x1="1010.57" y1="-312.92" x2="914.56" y2="32.11" xlink:href="#linear-gradient-6"/><linearGradient id="linear-gradient-42" x1="942.01" y1="394.8" x2="950.67" y2="394.8" xlink:href="#linear-gradient-9"/><linearGradient id="linear-gradient-43" x1="707.16" y1="412.59" x2="929.47" y2="412.59" xlink:href="#linear-gradient-9"/><linearGradient id="linear-gradient-44" x1="698.79" y1="341.5" x2="704.18" y2="341.5" xlink:href="#linear-gradient-9"/><linearGradient id="linear-gradient-45" x1="724.2" y1="237.34" x2="733.42" y2="237.34" xlink:href="#linear-gradient-9"/><linearGradient id="linear-gradient-46" x1="747.21" y1="231.84" x2="963.62" y2="231.84" xlink:href="#linear-gradient-9"/><linearGradient id="linear-gradient-47" x1="965.32" y1="306.02" x2="970.32" y2="306.02" xlink:href="#linear-gradient-9"/><linearGradient id="linear-gradient-48" x1="1008.36" y1="-313.53" x2="912.35" y2="31.5" xlink:href="#linear-gradient-6"/><linearGradient id="linear-gradient-49" x1="401.51" y1="966.87" x2="408.92" y2="966.87" gradientTransform="matrix(1, 0, 0, 1, 0, 0)" xlink:href="#linear-gradient"/><linearGradient id="linear-gradient-50" x1="389.08" y1="931.89" x2="396.87" y2="931.89" gradientTransform="matrix(1, 0, 0, 1, 0, 0)" xlink:href="#linear-gradient"/><linearGradient id="linear-gradient-51" x1="377.14" y1="896.85" x2="384.7" y2="896.85" gradientTransform="matrix(1, 0, 0, 1, 0, 0)" xlink:href="#linear-gradient"/><linearGradient id="linear-gradient-52" x1="366.89" y1="861.33" x2="373.9" y2="861.33" gradientTransform="matrix(1, 0, 0, 1, 0, 0)" xlink:href="#linear-gradient"/><linearGradient id="linear-gradient-53" x1="358.92" y1="825.24" x2="365.23" y2="825.24" gradientTransform="matrix(1, 0, 0, 1, 0, 0)" xlink:href="#linear-gradient"/><linearGradient id="linear-gradient-54" x1="353.55" y1="788.64" x2="359.06" y2="788.64" gradientTransform="matrix(1, 0, 0, 1, 0, 0)" xlink:href="#linear-gradient"/><linearGradient id="linear-gradient-55" x1="350.88" y1="751.73" x2="355.58" y2="751.73" gradientTransform="matrix(1, 0, 0, 1, 0, 0)" xlink:href="#linear-gradient"/><linearGradient id="linear-gradient-56" x1="350.59" y1="714.69" x2="355.13" y2="714.69" gradientTransform="matrix(1, 0, 0, 1, 0, 0)" xlink:href="#linear-gradient"/><linearGradient id="linear-gradient-57" x1="352.32" y1="677.71" x2="357.79" y2="677.71" gradientTransform="matrix(1, 0, 0, 1, 0, 0)" xlink:href="#linear-gradient"/><linearGradient id="linear-gradient-58" x1="356.48" y1="640.94" x2="362.82" y2="640.94" gradientTransform="matrix(1, 0, 0, 1, 0, 0)" xlink:href="#linear-gradient"/><linearGradient id="linear-gradient-59" x1="362.87" y1="604.53" x2="370.02" y2="604.53" gradientTransform="matrix(1, 0, 0, 1, 0, 0)" xlink:href="#linear-gradient"/><linearGradient id="linear-gradient-60" x1="371.33" y1="568.56" x2="379.31" y2="568.56" gradientTransform="matrix(1, 0, 0, 1, 0, 0)" xlink:href="#linear-gradient"/><linearGradient id="linear-gradient-61" x1="382.13" y1="533.26" x2="391.03" y2="533.26" gradientTransform="matrix(1, 0, 0, 1, 0, 0)" xlink:href="#linear-gradient"/><linearGradient id="linear-gradient-62" x1="395.35" y1="498.83" x2="405.15" y2="498.83" gradientTransform="matrix(1, 0, 0, 1, 0, 0)" xlink:href="#linear-gradient"/><linearGradient id="linear-gradient-63" x1="410.93" y1="465.42" x2="421.58" y2="465.42" gradientTransform="matrix(1, 0, 0, 1, 0, 0)" xlink:href="#linear-gradient"/><linearGradient id="linear-gradient-64" x1="428.75" y1="433.16" x2="440.23" y2="433.16" gradientTransform="matrix(1, 0, 0, 1, 0, 0)" xlink:href="#linear-gradient"/><linearGradient id="linear-gradient-65" x1="448.7" y1="402.19" x2="460.95" y2="402.19" gradientTransform="matrix(1, 0, 0, 1, 0, 0)" xlink:href="#linear-gradient"/><linearGradient id="linear-gradient-66" x1="470.65" y1="372.61" x2="483.57" y2="372.61" gradientTransform="matrix(1, 0, 0, 1, 0, 0)" xlink:href="#linear-gradient"/><linearGradient id="linear-gradient-67" x1="494.46" y1="344.48" x2="507.99" y2="344.48" gradientTransform="matrix(1, 0, 0, 1, 0, 0)" xlink:href="#linear-gradient"/><linearGradient id="linear-gradient-68" x1="519.97" y1="317.88" x2="534.05" y2="317.88" gradientTransform="matrix(1, 0, 0, 1, 0, 0)" xlink:href="#linear-gradient"/><linearGradient id="linear-gradient-69" x1="547.03" y1="292.85" x2="561.63" y2="292.85" gradientTransform="matrix(1, 0, 0, 1, 0, 0)" xlink:href="#linear-gradient"/><linearGradient id="linear-gradient-70" x1="575.52" y1="269.45" x2="590.59" y2="269.45" gradientTransform="matrix(1, 0, 0, 1, 0, 0)" xlink:href="#linear-gradient"/><linearGradient id="linear-gradient-71" x1="605.3" y1="247.69" x2="620.79" y2="247.69" gradientTransform="matrix(1, 0, 0, 1, 0, 0)" xlink:href="#linear-gradient"/><linearGradient id="linear-gradient-72" x1="636.25" y1="227.62" x2="652.13" y2="227.62" gradientTransform="matrix(1, 0, 0, 1, 0, 0)" xlink:href="#linear-gradient"/><linearGradient id="linear-gradient-73" x1="668.26" y1="209.26" x2="684.49" y2="209.26" gradientTransform="matrix(1, 0, 0, 1, 0, 0)" xlink:href="#linear-gradient"/><linearGradient id="linear-gradient-74" x1="701.22" y1="192.65" x2="717.77" y2="192.65" gradientTransform="matrix(1, 0, 0, 1, 0, 0)" xlink:href="#linear-gradient"/><linearGradient id="linear-gradient-75" x1="735.03" y1="177.83" x2="751.87" y2="177.83" gradientTransform="matrix(1, 0, 0, 1, 0, 0)" xlink:href="#linear-gradient"/><linearGradient id="linear-gradient-76" x1="769.61" y1="164.84" x2="786.7" y2="164.84" gradientTransform="matrix(1, 0, 0, 1, 0, 0)" xlink:href="#linear-gradient"/><linearGradient id="linear-gradient-77" x1="804.85" y1="153.75" x2="822.16" y2="153.75" gradientTransform="matrix(1, 0, 0, 1, 0, 0)" xlink:href="#linear-gradient"/><linearGradient id="linear-gradient-78" x1="840.66" y1="144.62" x2="858.17" y2="144.62" gradientTransform="matrix(1, 0, 0, 1, 0, 0)" xlink:href="#linear-gradient"/><linearGradient id="linear-gradient-79" x1="876.94" y1="137.53" x2="894.61" y2="137.53" gradientTransform="matrix(1, 0, 0, 1, 0, 0)" xlink:href="#linear-gradient"/><linearGradient id="linear-gradient-80" x1="913.6" y1="132.6" x2="931.4" y2="132.6" gradientTransform="matrix(1, 0, 0, 1, 0, 0)" xlink:href="#linear-gradient"/><linearGradient id="linear-gradient-81" x1="950.51" y1="129.94" x2="968.39" y2="129.94" gradientTransform="matrix(1, 0, 0, 1, 0, 0)" xlink:href="#linear-gradient"/><linearGradient id="linear-gradient-82" x1="987.55" y1="129.7" x2="1005.45" y2="129.7" gradientTransform="matrix(1, 0, 0, 1, 0, 0)" xlink:href="#linear-gradient"/><linearGradient id="linear-gradient-83" x1="1024.54" y1="132.03" x2="1042.41" y2="132.03" gradientTransform="matrix(1, 0, 0, 1, 0, 0)" xlink:href="#linear-gradient"/><linearGradient id="linear-gradient-84" x1="1061.31" y1="136.88" x2="1079.1" y2="136.88" gradientTransform="matrix(1, 0, 0, 1, 0, 0)" xlink:href="#linear-gradient"/><linearGradient id="linear-gradient-85" x1="1097.73" y1="144.02" x2="1115.39" y2="144.02" gradientTransform="matrix(1, 0, 0, 1, 0, 0)" xlink:href="#linear-gradient"/><linearGradient id="linear-gradient-86" x1="1133.64" y1="153.48" x2="1151.12" y2="153.48" gradientTransform="matrix(1, 0, 0, 1, 0, 0)" xlink:href="#linear-gradient"/><linearGradient id="linear-gradient-87" x1="1168.88" y1="165.27" x2="1186.12" y2="165.27" gradientTransform="matrix(1, 0, 0, 1, 0, 0)" xlink:href="#linear-gradient"/><linearGradient id="linear-gradient-88" x1="1203.3" y1="179.34" x2="1220.25" y2="179.34" gradientTransform="matrix(1, 0, 0, 1, 0, 0)" xlink:href="#linear-gradient"/><linearGradient id="linear-gradient-89" x1="1236.75" y1="195.61" x2="1253.37" y2="195.61" gradientTransform="matrix(1, 0, 0, 1, 0, 0)" xlink:href="#linear-gradient"/><linearGradient id="linear-gradient-90" x1="1269.13" y1="213.93" x2="1285.39" y2="213.93" gradientTransform="matrix(1, 0, 0, 1, 0, 0)" xlink:href="#linear-gradient"/><linearGradient id="linear-gradient-91" x1="1300.37" y1="234.14" x2="1316.26" y2="234.14" gradientTransform="matrix(1, 0, 0, 1, 0, 0)" xlink:href="#linear-gradient"/><linearGradient id="linear-gradient-92" x1="1330.44" y1="256.04" x2="1345.96" y2="256.04" gradientTransform="matrix(1, 0, 0, 1, 0, 0)" xlink:href="#linear-gradient"/><linearGradient id="linear-gradient-93" x1="1359.35" y1="279.44" x2="1374.51" y2="279.44" gradientTransform="matrix(1, 0, 0, 1, 0, 0)" xlink:href="#linear-gradient"/><linearGradient id="linear-gradient-94" x1="1387.15" y1="304.13" x2="1401.96" y2="304.13" gradientTransform="matrix(1, 0, 0, 1, 0, 0)" xlink:href="#linear-gradient"/><linearGradient id="linear-gradient-95" x1="1413.9" y1="329.93" x2="1428.4" y2="329.93" gradientTransform="matrix(1, 0, 0, 1, 0, 0)" xlink:href="#linear-gradient"/><linearGradient id="linear-gradient-96" x1="1439.71" y1="356.65" x2="1453.94" y2="356.65" gradientTransform="matrix(1, 0, 0, 1, 0, 0)" xlink:href="#linear-gradient"/><linearGradient id="linear-gradient-97" x1="1464.7" y1="384.11" x2="1478.7" y2="384.11" gradientTransform="matrix(1, 0, 0, 1, 0, 0)" xlink:href="#linear-gradient"/><linearGradient id="linear-gradient-98" x1="1489" y1="412.16" x2="1502.83" y2="412.16" gradientTransform="matrix(1, 0, 0, 1, 0, 0)" xlink:href="#linear-gradient"/><linearGradient id="linear-gradient-99" x1="1512.78" y1="440.63" x2="1526.49" y2="440.63" gradientTransform="matrix(1, 0, 0, 1, 0, 0)" xlink:href="#linear-gradient"/><linearGradient id="linear-gradient-100" x1="1536.21" y1="469.37" x2="1549.85" y2="469.37" gradientTransform="matrix(1, 0, 0, 1, 0, 0)" xlink:href="#linear-gradient"/><linearGradient id="linear-gradient-101" x1="1559.47" y1="498.2" x2="1573.13" y2="498.2" gradientTransform="matrix(1, 0, 0, 1, 0, 0)" xlink:href="#linear-gradient"/><linearGradient id="linear-gradient-102" x1="1582.79" y1="526.96" x2="1596.56" y2="526.96" gradientTransform="matrix(1, 0, 0, 1, 0, 0)" xlink:href="#linear-gradient"/><linearGradient id="linear-gradient-103" x1="1606.44" y1="555.4" x2="1620.41" y2="555.4" gradientTransform="matrix(1, 0, 0, 1, 0, 0)" xlink:href="#linear-gradient"/><linearGradient id="linear-gradient-104" x1="1630.72" y1="583.25" x2="1645.01" y2="583.25" gradientTransform="matrix(1, 0, 0, 1, 0, 0)" xlink:href="#linear-gradient"/><linearGradient id="linear-gradient-105" x1="1656.01" y1="610.12" x2="1670.77" y2="610.12" gradientTransform="matrix(1, 0, 0, 1, 0, 0)" xlink:href="#linear-gradient"/><linearGradient id="linear-gradient-106" x1="1682.75" y1="635.42" x2="1698.15" y2="635.42" gradientTransform="matrix(1, 0, 0, 1, 0, 0)" xlink:href="#linear-gradient"/><linearGradient id="linear-gradient-107" x1="1711.46" y1="658.29" x2="1727.7" y2="658.29" gradientTransform="matrix(1, 0, 0, 1, 0, 0)" xlink:href="#linear-gradient"/><linearGradient id="linear-gradient-108" x1="1742.71" y1="677.47" x2="1759.77" y2="677.47" gradientTransform="matrix(1, 0, 0, 1, 0, 0)" xlink:href="#linear-gradient"/><linearGradient id="linear-gradient-109" x1="1776.61" y1="691.23" x2="1794.53" y2="691.23" gradientTransform="matrix(1, 0, 0, 1, 0, 0)" xlink:href="#linear-gradient"/><linearGradient id="linear-gradient-110" x1="1812.72" y1="697.9" x2="1831.13" y2="697.9" gradientTransform="matrix(1, 0, 0, 1, 0, 0)" xlink:href="#linear-gradient"/><linearGradient id="linear-gradient-111" x1="1849.59" y1="694.77" x2="1867.48" y2="694.77" gradientTransform="matrix(1, 0, 0, 1, 0, 0)" xlink:href="#linear-gradient"/><linearGradient id="linear-gradient-112" x1="1882.66" y1="676.5" x2="1898.08" y2="676.5" gradientTransform="matrix(1, 0, 0, 1, 0, 0)" xlink:href="#linear-gradient"/><linearGradient id="linear-gradient-113" x1="1907.53" y1="648.02" x2="1919.98" y2="648.02" gradientTransform="matrix(1, 0, 0, 1, 0, 0)" xlink:href="#linear-gradient"/><linearGradient id="linear-gradient-114" x1="1923.21" y1="613.94" x2="1932.33" y2="613.94" gradientTransform="matrix(1, 0, 0, 1, 0, 0)" xlink:href="#linear-gradient"/><linearGradient id="linear-gradient-115" x1="1927.9" y1="577.22" x2="1934.35" y2="577.22" gradientTransform="matrix(1, 0, 0, 1, 0, 0)" xlink:href="#linear-gradient"/><linearGradient id="linear-gradient-116" x1="1923.16" y1="540.42" x2="1930.86" y2="540.42" gradientTransform="matrix(1, 0, 0, 1, 0, 0)" xlink:href="#linear-gradient"/><linearGradient id="linear-gradient-117" x1="1915.55" y1="504.19" x2="1923.68" y2="504.19" gradientTransform="matrix(1, 0, 0, 1, 0, 0)" xlink:href="#linear-gradient"/><linearGradient id="linear-gradient-118" x1="1905.68" y1="468.47" x2="1913.91" y2="468.47" gradientTransform="matrix(1, 0, 0, 1, 0, 0)" xlink:href="#linear-gradient"/><linearGradient id="linear-gradient-119" x1="1893.38" y1="433.56" x2="1901.7" y2="433.56" gradientTransform="matrix(1, 0, 0, 1, 0, 0)" xlink:href="#linear-gradient"/><linearGradient id="linear-gradient-120" x1="1877.06" y1="400.24" x2="1885.98" y2="400.24" gradientTransform="matrix(1, 0, 0, 1, 0, 0)" xlink:href="#linear-gradient"/></defs><g class="cls-1"><g id="Layer_2" data-name="Layer 2"><g id="Illustration"><path class="cls-2" d="M1745.38,580.89s-56.08-50.26-142.35,3.43S1414.14,842,1594.81,971.11c169.25,120.95,520-12.05,476.73-203.89a90.71,90.71,0,0,1,14.27-72.11c26-37,53.29-102.05,2.05-176.32a185.7,185.7,0,0,0-15.8-15.26,99.85,99.85,0,0,1-29.25-107.91c43.76-127.88,77.14-339.29-205.53-291.44-260.11,44-91.11,347-91.11,347S1692.06,475.68,1745.38,580.89Z"/><path class="cls-3" d="M1826.33,1099.18s198.09-232.81,188.3-524.52C2006.11,321,1852.38,362,1927.91,473.31c22.27,32.82,63,66.68,67.06,103C2013.34,739.84,1944.72,924.62,1826.33,1099.18Z"/><path class="cls-3" d="M1808.41,1141.2s142.54-247,106.09-512.05c-31.7-230.44-155.87-166.51-82.11-77.72,21.74,26.17,59,50.11,65.88,82.59C1929.44,780.41,1890.17,961.19,1808.41,1141.2Z"/><path class="cls-3" d="M1840.71,1024.93s118.68-139.49,112.82-314.26c-5.11-152-97.21-127.42-52-60.72,13.34,19.67,37.74,39.95,40.18,61.69C1952.76,809.64,1911.64,920.35,1840.71,1024.93Z"/><path class="cls-4" d="M843.17,994.67s-139.6,73.08-89.58,211.12C793.2,1315.1,949,1348.35,1039,1307.75a90.8,90.8,0,0,1,78.41,1.81c6.8,3.46,15.49,5.12,26.61,3.74a90.39,90.39,0,0,1,58.68,12.84c49.4,30.49,151.88,65.77,229.27-95.1,105.76-219.82-10.39-333-10.39-333Z"/><path class="cls-5" d="M438.68,577.55s77.64,37.91,156-48.37S722.5,185.63,482.65,99.7C272.55,24.44-43.12,243.93,4.9,434.79A478.54,478.54,0,0,1,16.47,604.12C11.35,649.73,22,705.36,80.12,753.36c0,0,37.46,23.78,68.17,25.09,16,.69,28.15,14.51,26.14,30.39-16.75,131.91-33.1,487.94,312.11,323.65,273.31-130.07-8.13-411.57-8.13-411.57S530.48,677,438.68,577.55Z"/><path class="cls-6" d="M584.4,1011.34s48.07-499.6-181.46-840.22a7.36,7.36,0,0,0-12.37.22C346.16,243.33,85.54,709.76,584.4,1011.34Z"/><path class="cls-3" d="M395.27,316.45c-.12,29.16.94,58.44,3.11,87.56q3,43.73,8.5,87.18c3.76,28.95,8.13,57.81,13.59,86.47s11.45,57.21,18.77,85.43S454.39,719.4,463.69,747c1.14,3.46,2.22,6.94,3.4,10.39l3.65,10.3c2.48,6.85,4.78,13.77,7.41,20.56L486,808.65l2,5.11,2.11,5,4.23,10.08c5.42,13.54,11.79,26.65,17.73,40,3.09,6.6,6.42,13.08,9.62,19.63l4.85,9.81c1.65,3.25,3.46,6.42,5.14,9.65L542,927.25l11,18.93,5.51,9.47,5.87,9.24L576,983.48l0,0a2.06,2.06,0,0,1-3.41,2.31,819.13,819.13,0,0,1-88.09-152.7L480,823l-2.24-5-2.1-5.11-8.3-20.49c-2.75-6.83-5.17-13.79-7.77-20.68l-3.83-10.37c-1.24-3.47-2.38-7-3.58-10.45-9.71-27.83-17.75-56.2-25.18-84.69a1229.29,1229.29,0,0,1-30.87-173.76q-4.65-43.89-6.09-88-.68-22-.48-44.09c.09-14.71.49-29.38,1.58-44.11a2.06,2.06,0,0,1,4.11.16Z"/><path class="cls-3" d="M547.09,1033.89S379.39,480.68,69.23,396.08a8.86,8.86,0,0,0-11.16,8.25C55.79,470.67,67.19,823.7,547.09,1033.89Z"/><path class="cls-7" d="M121.27,486.15c14.25,24.1,29.38,47.76,44.72,71.24,7.73,11.7,15.46,23.41,23.32,35s15.79,23.18,23.89,34.63,16.2,22.91,24.42,34.27l25,33.88c17,22.32,34,44.66,51.55,66.51,17.22,22.15,35.45,43.47,53.3,65.12l27.64,31.72c4.63,5.27,9.18,10.6,13.87,15.82l14.24,15.48c9.52,10.29,18.94,20.69,28.55,30.9l29.36,30.13c4.9,5,9.72,10.12,14.69,15.06l15.12,14.63,30.24,29.26,0,0a2.06,2.06,0,0,1-2.84,3c-41-38.48-81.42-77.63-119.07-119.42L404.94,878c-4.72-5.21-9.3-10.54-14-15.8l-27.81-31.7c-18-21.63-36.32-42.94-53.64-65.08Q256.87,699.5,208.8,630.13c-8.07-11.51-15.86-23.21-23.81-34.8s-15.53-23.44-23.23-35.19c-15.15-23.7-30-47.54-44.07-71.95a2.06,2.06,0,0,1,3.56-2.08Z"/><ellipse class="cls-8" cx="1147.9" cy="596.98" rx="596.87" ry="644.26" transform="translate(501.15 1717.59) rotate(-87.49)"/><g class="cls-9"><ellipse class="cls-6" cx="1113.03" cy="553.91" rx="505.55" ry="477.58"/></g><g class="cls-10"><path class="cls-11" d="M1312.48,599.86c-.15,105.27-7.37,210.76-25.92,314.54-4.7,25.92-10.14,51.72-16.63,77.27a744.75,744.75,0,0,1-23.22,75.63c-9.27,24.69-20,49-34.64,71.28-7.35,11-15.7,21.62-26,30.32a74.21,74.21,0,0,1-17,11,51,51,0,0,1-19.87,4.68,50.3,50.3,0,0,1-20.09-3.69,69.84,69.84,0,0,1-17.41-10.37c-10.54-8.43-19.07-18.9-26.56-29.85-14.86-22.09-25.77-46.37-35.14-71a728.33,728.33,0,0,1-23.47-75.55c-6.55-25.54-12-51.32-16.78-77.24-9.46-51.84-15.9-104.18-20.25-156.67S983,655,982.74,602.33c-.13-26.33.59-52.66,1.53-79s2.43-52.6,4.37-78.85c3.89-52.51,9.71-104.9,18.36-156.86,4.34-26,9.39-51.84,15.48-77.48a743,743,0,0,1,22-75.92c4.42-12.43,9.25-24.72,14.76-36.72a268.94,268.94,0,0,1,18.9-34.84c7.26-11,15.6-21.59,26-30a66.83,66.83,0,0,1,17.18-10.29A48.54,48.54,0,0,1,1141,18.85a52.56,52.56,0,0,1,19.52,4.58,76.21,76.21,0,0,1,17,10.58c10.36,8.42,18.94,18.71,26.54,29.52,15.12,21.77,26.53,45.78,36.4,70.2a720.43,720.43,0,0,1,25,75c7,25.4,13,51.08,18.12,76.91C1303.91,389.07,1312.18,494.57,1312.48,599.86Zm-7.79,0c.1-52.46-1.89-104.92-6.25-157.19a1514.66,1514.66,0,0,0-20.51-155.94c-4.85-25.76-10.49-51.39-17.2-76.72a712.36,712.36,0,0,0-24-74.81c-9.53-24.35-20.59-48.28-35.26-69.89-7.37-10.73-15.69-20.92-25.67-29.21a73.89,73.89,0,0,0-16.27-10.41A48.8,48.8,0,0,0,1141,21.16a45.68,45.68,0,0,0-18.74,3.53,63.92,63.92,0,0,0-16.4,10.07c-10,8.28-18,18.69-25,29.64A264.5,264.5,0,0,0,1062.5,99c-5.33,11.94-10,24.18-14.24,36.56a740.3,740.3,0,0,0-21,75.7c-5.78,25.57-10.53,51.38-14.57,77.29-8,51.84-13.27,104.1-16.58,156.45s-4.49,104.85-4.4,157.31q-.21,78.67,5.51,157.23c3.93,52.3,9.95,104.47,19,156.13,4.51,25.82,9.78,51.51,16.1,76.93a724.83,724.83,0,0,0,22.7,75.15c9.09,24.48,19.71,48.56,34.07,70.26,7.23,10.75,15.45,21,25.41,29a65.24,65.24,0,0,0,16.26,9.87,45,45,0,0,0,18.39,3.49,46.81,46.81,0,0,0,18.2-4.45,69.63,69.63,0,0,0,15.92-10.46c9.75-8.36,17.8-18.69,24.9-29.54,14.1-21.87,24.57-46,33.56-70.53a739.39,739.39,0,0,0,22.43-75.22c6.25-25.45,11.46-51.15,15.93-77,8.94-51.67,14.89-103.84,18.84-156.14S1304.71,652.32,1304.69,599.86Z"/><path class="cls-11" d="M1578.05,599.86c-.36,67.79-9.08,135.61-27.22,201-18.47,65.22-46.3,128-84.09,184.3a530.48,530.48,0,0,1-64.23,78.65,450.17,450.17,0,0,1-79.06,63.65,380.75,380.75,0,0,1-92.25,42.18,345.08,345.08,0,0,1-200.58.09,381.35,381.35,0,0,1-92.32-42.11,451.38,451.38,0,0,1-79.17-63.6,531.19,531.19,0,0,1-64.35-78.64C756.92,929,729,866.26,710.47,801a730.9,730.9,0,0,1-20.41-99.65,797.43,797.43,0,0,1-6.87-101.49,797.21,797.21,0,0,1,6.93-101.48,730.51,730.51,0,0,1,20.48-99.63c18.6-65.23,46.54-128,84.43-184.24A531.16,531.16,0,0,1,859.39,136a449.2,449.2,0,0,1,79.14-63.49,382.6,382.6,0,0,1,92.25-41.95,342.61,342.61,0,0,1,200.27.08,382.51,382.51,0,0,1,92.17,42,449.27,449.27,0,0,1,79,63.53,530.34,530.34,0,0,1,64.23,78.57c37.82,56.27,65.69,119,84.2,184.18C1568.88,464.26,1577.64,532.07,1578.05,599.86Zm-8.93,0c-.1-67-8.45-134.12-26.13-198.82s-44.56-127-81.42-183a525.31,525.31,0,0,0-62.77-78.42,439.46,439.46,0,0,0-77.65-63.67,375.32,375.32,0,0,0-91.07-42.1,334.17,334.17,0,0,0-198.28.09,374.72,374.72,0,0,0-91,42.17c-28.28,18-54.14,39.74-77.54,63.71a525.7,525.7,0,0,0-62.65,78.44c-36.78,56.08-63.5,118.41-81.19,183a735.05,735.05,0,0,0-19.53,98.47A765.33,765.33,0,0,0,700,700a732.75,732.75,0,0,0,19.59,98.45c17.74,64.54,44.5,126.84,81.31,182.85a524,524,0,0,0,62.65,78.35c23.41,23.94,49.24,45.62,77.52,63.6a376.33,376.33,0,0,0,90.93,42,331.85,331.85,0,0,0,198,.09,376.58,376.58,0,0,0,91-42c28.31-18,54.18-39.63,77.62-63.55a524.91,524.91,0,0,0,62.79-78.34c36.88-56,63.7-118.34,81.53-182.91S1569,666.88,1569.12,599.86Z"/><path class="cls-11" d="M609.17,368.49l134.27-1.09,134.28-.61,268.56-.5,268.55.55,134.28.67,134.28,1.17a.4.4,0,0,1,.39.4.4.4,0,0,1-.39.39l-134.28,1.17-134.28.67-268.55.55-268.56-.5-134.28-.61-134.27-1.09a.59.59,0,1,1,0-1.17Z"/><path class="cls-11" d="M764.94,143.58c31.78-.5,63.56-.72,95.34-1.08l95.33-.62c31.78-.26,63.56-.23,95.33-.31l95.34-.18,190.66.54,95.33.67c31.78.4,63.56.64,95.34,1.18a.39.39,0,1,1,0,.78c-31.78.54-63.56.78-95.34,1.18l-95.33.67-190.66.54-95.34-.18c-31.77-.08-63.55-.05-95.33-.31l-95.33-.62c-31.78-.36-63.56-.58-95.34-1.08a.59.59,0,0,1,0-1.18Z"/><path class="cls-11" d="M562.5,593.39l146-1.08,145.94-.62,291.89-.5,291.88.55,145.95.67,145.94,1.17a.4.4,0,0,1,0,.79l-145.94,1.17-145.95.67-291.88.55-291.89-.5-145.94-.62-146-1.08a.59.59,0,0,1,0-1.17Z"/><path class="cls-11" d="M609.17,818.29l134.27-1.08,134.28-.62,268.56-.49,268.55.54,134.28.67,134.28,1.18a.39.39,0,1,1,0,.78l-134.28,1.17-134.28.68-268.55.54-268.56-.49-134.28-.62-134.27-1.08a.59.59,0,1,1,0-1.18Z"/><path class="cls-11" d="M1546.82,1045.84H784.16a2.06,2.06,0,0,1,0-4.12h762.66a2.06,2.06,0,1,1,0,4.12Z"/></g><path class="cls-12" d="M1073,1046.09s-12.68-33.4-27.5-30.34-31,14.44-31,14.44l-23.81,32.2s66.83,26.33,90.33,11.24c0,0,68.27,11.79,154.47-2.35-12.48-26.34-19.92-52.72-24.29-73.19C1167.48,1022.8,1120.46,1041.26,1073,1046.09Z"/><path class="cls-3" d="M1434.56,803.85s-97.73,123.09-223.42,194.24c4.37,20.47,11.81,46.85,24.29,73.19,65.2-10.7,140.65-36.23,204.63-93Z"/><path class="cls-13" d="M129.23,860.62l194,487.93a57.8,57.8,0,0,0,61.94,35.86L894,1346.84,710.7,828a32.41,32.41,0,0,0-31-20.89c-89.21,2.06-414.09,10.08-530.32,20.42A24.08,24.08,0,0,0,129.23,860.62Z"/><path class="cls-6" d="M368,1362.26,174.2,869.94a15.36,15.36,0,0,1,13.94-21l479.12-18.18A29,29,0,0,1,695.4,849.2l175.48,479.93Z"/><path class="cls-14" d="M2066.85,860.62l-194,487.93a57.81,57.81,0,0,1-61.94,35.86l-508.78-35.61L1485.38,828a32.42,32.42,0,0,1,31-20.89c89.2,2.06,414.09,10.08,530.31,20.42A24.08,24.08,0,0,1,2066.85,860.62Z"/><path class="cls-15" d="M1828,1362.26l193.84-492.32a15.36,15.36,0,0,0-13.94-21l-479.12-18.18a29,29,0,0,0-28.14,18.42L1325.2,1329.13Z"/><path class="cls-16" d="M702.06,820.12l6.07,163a444.24,444.24,0,0,0,49.27,14c9.77-31.46,31.29-70.08,48.91-98.79C741.57,875.39,702.06,820.12,702.06,820.12Z"/><path class="cls-17" d="M1025.3,817.35c-88.81,95.89-160.7,101.53-219,80.93-17.62,28.71-39.14,67.33-48.91,98.79,237.16,52.29,293-165.74,293-165.74Z"/><path class="cls-18" d="M1043.31,807.17s10.23-11,29.16-7.54,35.79,10,47.59,0,15.94,3.44,15.94,3.44l-35.32,26.85Z"/><path class="cls-19" d="M1022.18,826s7-29.31,28.13-25.29,69.09,30.09,81.44,25.29,28.17-16.31,36.28-12.24l-14.29,17.76s36.72-21.19,43-8.17l-61.09,34.38S1046.31,848.73,1022.18,826Z"/><path class="cls-20" d="M394.62,1357.2S364.31,924.58,585.23,790.05c0,0,61.76-40.77,138.71,38.19s52.18,161-12.4,237.88S581.17,1280.33,596.83,1357.2Z"/><path class="cls-21" d="M696.56,672.21c-.06,5.16-73.62,109.65-73.62,109.65s13.2,26,76.24,47.12L753.59,717.1Z"/><path class="cls-22" d="M667.63,1031s139.57,116.89,290.28,65.89A35.84,35.84,0,0,1,986.2,1099l43.33,22.88a38.67,38.67,0,0,0,51.26-14.35c6-10.07,11.15-21.57,12.18-32.59l-84.78-34.32,6.25-10.4s-41.4-3.5-52.23,26.16c0,0-78.84,32.8-211.8-113.45C750.41,942.9,690.07,994.2,667.63,1031Z"/><path class="cls-23" d="M660.12,1030.44a3.08,3.08,0,0,1-1.73-.53c-58.93-39.82-86.66-104.1-86.93-104.74a3.09,3.09,0,1,1,5.68-2.41c.27.63,27.33,63.27,84.71,102a3.08,3.08,0,0,1-1.73,5.64Z"/><path class="cls-24" d="M747.65,941.62a3.1,3.1,0,0,1-2.6-1.42c-.17-.27-18.14-28.24-52.34-89.49-10.42-18.65-24.09-30.46-40.64-35.1-27.45-7.68-53.92,7-54.19,7.2a3.09,3.09,0,0,1-3-5.37c1.17-.66,28.89-16.14,58.84-7.79,18.22,5.08,33.17,17.88,44.43,38.05,34.09,61,52,88.88,52.14,89.16a3.07,3.07,0,0,1-.92,4.26A3,3,0,0,1,747.65,941.62Z"/><path class="cls-25" d="M754.48,612.34s26.17,60.13,27.93,91.69,8.56,52-27.93,58.39-67.23-11.82-83.89-43.26c0,0-26.09-48.44-20.24-68.28S754.48,612.34,754.48,612.34Z"/><path class="cls-26" d="M683.06,696.56l2.08-.92a5,5,0,0,0,2.45-6.88c-5.15-9.94-15.18-32.72-2.22-38,16.7-6.85,82.86-20.34,97.13-43.81,13.72-22.56,1.56-51.68-16.7-60a2.53,2.53,0,0,0-3.3,1.08L761,550.9a2.48,2.48,0,0,1-4.57-.47h0a2.47,2.47,0,0,0-4.47-.64c-4.38,7-16.23,18.41-47.91,24.25-45,8.31-74.78,26.53-75.52,57.64a2.48,2.48,0,0,1-3.83,2c-3.33-2-8.65-3-15.76,3-12.36,10.4-7.3,37.37,19.8,59.55a2.46,2.46,0,0,1-.11,4c-4.92,3.2-12.24,10.81,6.74,21,19.63,10.5,34.29,9.64,39.93,8.7a2.47,2.47,0,0,0,2-3l-6-27.34a2.48,2.48,0,0,1,2.42-3Z"/><path class="cls-27" d="M684.2,702.33s-10-38.41-27.21-27.64,8.94,43,22.78,44.47Z"/><path class="cls-28" d="M986.2,1099s35.47,34.69,42.31,29.64c2.44-1.8,8.58-8.32,14.54-15.59a15.23,15.23,0,0,0,1-17.94l-8.37-12.91a24.18,24.18,0,0,0-36.09-5.26A43.81,43.81,0,0,0,986.2,1099Z"/><path class="cls-3" d="M1545.08,1350.83s-.23-155.86-90.86-316.81c-28.34-50.35-38.43-108.95-29.59-166l9.93-64.12s124.37-42.09,262.24-1.78c0,0,191.15,157.78,63.4,561.32Z"/><path class="cls-29" d="M1455.73,722,1488,799.48a15.46,15.46,0,0,0,11.67,9.28c18.59,3.19,63.56,8.17,93.09-11.25a7.51,7.51,0,0,0,2-10.56l-59.58-85.54Z"/><path class="cls-30" d="M1535.27,1086.11a7.16,7.16,0,0,0-4.52,10.24l93.3,178.9a7.14,7.14,0,0,0,8.33,3.56l305.19-88.11a7.16,7.16,0,0,0,4.89-8.87l-52.57-182a7.16,7.16,0,0,0-8.7-4.94Z"/><path class="cls-6" d="M1555,1065.09a7.5,7.5,0,0,0-5.3,9.88l74.69,202.87a7.49,7.49,0,0,0,9.11,4.62l304.27-87.85a7.5,7.5,0,0,0,5.24-8.79l-42.16-195.25a7.5,7.5,0,0,0-9.07-5.71Z"/><path class="cls-31" d="M1581.46,1044.61a9.26,9.26,0,0,0-7.63,11.25l50.72,219a9.27,9.27,0,0,0,11.6,6.81l299.65-86.52a9.27,9.27,0,0,0,6.41-11.21l-46.09-178.77a9.26,9.26,0,0,0-10.36-6.85Z"/><path class="cls-3" d="M1824,1128.13c23.26-175.69-112.13-310.78-112.13-310.78l-80.56,93.91c61.16,76.23,90.23,146.08,103.51,201C1752.46,1107.08,1794.87,1099,1824,1128.13Z"/><path class="cls-6" d="M1734.85,1114.27a2.07,2.07,0,0,1-2-1.58c-16.47-68-51.16-135.39-103.11-200.14A2.06,2.06,0,0,1,1633,910c52.33,65.23,87.29,133.11,103.9,201.75a2.06,2.06,0,0,1-1.51,2.49A2.12,2.12,0,0,1,1734.85,1114.27Z"/><path class="cls-32" d="M1734.85,1112.21c12.34,51,11.05,89,9.17,107.2a14.15,14.15,0,0,1-13.08,12.68c-7.8.54-18.42,1.26-27.91,1.81-10.43.6-22-6-29.74-11.5a4.65,4.65,0,0,0-6.86,5.88c5.78,11.31,20.44,21.37,30.55,27.29a4.83,4.83,0,0,1-1.12,8.81l-43.22,12.25c71,66.9,117.91-8,117.91-8,31.35-48.44,47.56-95.8,53.48-140.54C1794.87,1099,1752.46,1107.08,1734.85,1112.21Z"/><path class="cls-33" d="M1489.08,603.46c-1.35,1.28-57.16,110.87-57.16,110.87l63.26,30.54,68.32-96S1511.76,582.12,1489.08,603.46Z"/><path class="cls-34" d="M1534.76,660.37,1503.21,713a10,10,0,0,1-1.73,2.16c-3.76,3.49-16.6,13.66-26.54-.18-8.46-11.8-16.41-22.53-24.92-27a10.08,10.08,0,0,0-13.61,4.48c-5.2,10.3-15.27,31.3-21.59,51.21a10,10,0,0,0,5.84,12.32c12.81,5.19,38.13,14.57,60.59,17.67a10.1,10.1,0,0,0,9.54-4c9.66-13.24,36.9-50.24,46.2-59.5,8.63-8.61,24.57-5.36,31.76-3.3a10.1,10.1,0,0,0,8.06-1.06c7.28-4.39,20-15.32,8.37-33.82a10.1,10.1,0,0,1,3.12-13.72c8.14-5.35,17-15.4,8.55-31.67-8.51-16.47-23.72-17.95-34.07-16.68a10.48,10.48,0,0,1-11-6.11,6.66,6.66,0,0,0-5.2-4.1,9.8,9.8,0,0,1-7.93-11.5c1.83-9.32.45-21.43-14.43-29.61-27.29-15-51.2,9.44-57.28,30.08s24.44,35.23,43.63,37.66c14.1,1.79,21.83,17.18,25,25.22A10.13,10.13,0,0,1,1534.76,660.37Z"/><path class="cls-35" d="M1525.14,729.43s12.13-35.51,27.67-34.21,27.76,16.78,8.51,34.18C1537.37,751,1525.14,729.43,1525.14,729.43Z"/><path class="cls-36" d="M1067,1368.53a16.47,16.47,0,0,1-16.47,16.47H381.36a25,25,0,0,1-25-25l-10.52-12.23,694.77-6a26.74,26.74,0,0,1,26.38,26.74Z"/><path class="cls-37" d="M1129.12,1368.53a16.47,16.47,0,0,0,16.47,16.47h669.13a25,25,0,0,0,25-25l10.52-12.23-694.77-6a26.75,26.75,0,0,0-26.38,26.74Z"/><path class="cls-38" d="M1340.25,730.43a2.06,2.06,0,0,1-1.31-3.65q3.15-2.6,6.21-5.3a2.06,2.06,0,1,1,2.72,3.09c-2.07,1.83-4.17,3.62-6.31,5.39A2.08,2.08,0,0,1,1340.25,730.43Z"/><path class="cls-39" d="M1186.28,788.76a2.06,2.06,0,0,1-.07-4.12c5.24-.18,10.56-.53,15.79-1a2.06,2.06,0,0,1,.4,4.1c-5.32.52-10.72.87-16.05,1Zm-25.93-.45h-.14c-5.34-.37-10.72-.91-16-1.6a2.07,2.07,0,0,1-1.77-2.31,2,2,0,0,1,2.31-1.77c5.21.68,10.51,1.21,15.76,1.57a2.06,2.06,0,0,1-.14,4.11Zm67.5-4.43a2.06,2.06,0,0,1-.41-4.08c5.14-1,10.33-2.25,15.42-3.61a2.05,2.05,0,1,1,1.06,4c-5.17,1.39-10.44,2.63-15.67,3.68A1.81,1.81,0,0,1,1227.85,783.88ZM1119,782a2,2,0,0,1-.48-.06c-5.19-1.23-10.42-2.64-15.54-4.19a2.06,2.06,0,0,1,1.2-3.94c5,1.53,10.18,2.92,15.29,4.12A2.06,2.06,0,0,1,1119,782Zm149.11-9.77a2.06,2.06,0,0,1-.73-4l1.38-.53c4.45-1.72,8.91-3.58,13.25-5.54a2.06,2.06,0,0,1,1.69,3.75c-4.41,2-8.94,3.89-13.46,5.63l-1.4.53A1.86,1.86,0,0,1,1268.07,772.27Zm-188.93-3.17a2,2,0,0,1-.79-.16c-4.93-2.06-9.86-4.3-14.64-6.66a2.06,2.06,0,1,1,1.82-3.69c4.7,2.32,9.55,4.52,14.41,6.55a2.06,2.06,0,0,1-.8,4Zm226.75-14.78a2.06,2.06,0,0,1-1-3.84c4.55-2.64,9.07-5.45,13.44-8.36a2.06,2.06,0,0,1,2.28,3.42c-4.44,3-9,5.82-13.66,8.5A2,2,0,0,1,1305.89,754.32ZM1042,749.87a2.08,2.08,0,0,1-1.09-.31c-4.54-2.84-9-5.85-13.37-8.95a2.06,2.06,0,0,1,2.4-3.35c4.26,3,8.69,6,13.15,8.81a2.05,2.05,0,0,1-1.09,3.8Zm-33.54-25a2,2,0,0,1-1.36-.52c-4-3.53-8-7.24-11.72-11a2.06,2.06,0,0,1,2.91-2.91c3.71,3.71,7.59,7.36,11.53,10.83a2.06,2.06,0,0,1-1.36,3.61Zm-29-30.16a2.06,2.06,0,0,1-1.6-.76c-3.36-4.13-6.64-8.43-9.75-12.78a2.06,2.06,0,0,1,3.35-2.39c3.06,4.28,6.29,8.51,9.6,12.57a2.07,2.07,0,0,1-.3,2.9A2,2,0,0,1,979.45,694.7Zm-23.64-34.52a2.06,2.06,0,0,1-1.79-1c-2.64-4.64-5.17-9.42-7.52-14.21a2.06,2.06,0,1,1,3.7-1.82c2.31,4.72,4.8,9.43,7.4,14a2.06,2.06,0,0,1-.77,2.81A2,2,0,0,1,955.81,660.18Zm-17.69-37.93a2.05,2.05,0,0,1-1.93-1.34c-1.87-5-3.59-10.16-5.13-15.25a2.06,2.06,0,1,1,3.94-1.19c1.51,5,3.21,10,5,15a2,2,0,0,1-1.22,2.64A1.94,1.94,0,0,1,938.12,622.25ZM926.78,582a2.05,2.05,0,0,1-2-1.67c-1-5.21-1.89-10.56-2.58-15.88a2.06,2.06,0,1,1,4.08-.53c.68,5.23,1.54,10.49,2.54,15.63a2.06,2.06,0,0,1-1.63,2.41A1.75,1.75,0,0,1,926.78,582Zm-4.58-41.61a2.06,2.06,0,0,1-2.06-2q-.09-3.47-.09-6.92c0-3.07.06-6.16.17-9.18a2.05,2.05,0,0,1,2-2h.08a2.06,2.06,0,0,1,2,2.14c-.11,3-.16,6-.16,9q0,3.39.09,6.81a2.06,2.06,0,0,1-2,2.11Z"/><path class="cls-40" d="M924.54,498.4l-.28,0a2.07,2.07,0,0,1-1.76-2.33q.57-4.11,1.28-8.19a2.06,2.06,0,1,1,4.06.7c-.46,2.68-.88,5.36-1.26,8.06A2.06,2.06,0,0,1,924.54,498.4Z"/><path class="cls-41" d="M1025.47,328.17a2.06,2.06,0,0,1-1.23-3.71q3.33-2.46,6.75-4.83a2.06,2.06,0,0,1,2.34,3.39c-2.24,1.55-4.46,3.14-6.64,4.75A2.07,2.07,0,0,1,1025.47,328.17Z"/><path class="cls-42" d="M1432.32,552.83h-.16a2.05,2.05,0,0,1-1.89-2.21c.42-5.53.67-11.15.73-16.7a2.06,2.06,0,0,1,2-2h0a2,2,0,0,1,2,2.08c0,5.65-.3,11.36-.74,17A2.05,2.05,0,0,1,1432.32,552.83Zm-.46-44.21a2.05,2.05,0,0,1-2-1.85c-.54-5.52-1.28-11.1-2.19-16.58a2.06,2.06,0,0,1,4.07-.68c.92,5.58,1.67,11.25,2.22,16.85a2.06,2.06,0,0,1-1.85,2.25Zm-8.13-43.45a2.06,2.06,0,0,1-2-1.51c-1.49-5.33-3.18-10.7-5-16a2.06,2.06,0,0,1,3.89-1.36c1.87,5.34,3.58,10.79,5.09,16.22a2,2,0,0,1-1.43,2.53A2.09,2.09,0,0,1,1423.73,465.17Zm-15.46-41.42a2.06,2.06,0,0,1-1.86-1.18c-2.38-5-5-10-7.66-14.86a2.06,2.06,0,0,1,3.6-2c2.74,4.93,5.36,10,7.78,15.11a2.06,2.06,0,0,1-1,2.74A2.16,2.16,0,0,1,1408.27,423.75ZM1386,385.6a2.08,2.08,0,0,1-1.68-.87c-3.21-4.53-6.61-9-10.11-13.31a2.06,2.06,0,0,1,3.2-2.6c3.55,4.37,7,8.92,10.27,13.53a2.06,2.06,0,0,1-1.68,3.25Zm-28.58-33.68a2,2,0,0,1-1.44-.6c-3.94-3.9-8.07-7.72-12.27-11.36a2.06,2.06,0,0,1,2.69-3.11c4.27,3.7,8.47,7.58,12.47,11.54a2.07,2.07,0,0,1,0,2.92A2.11,2.11,0,0,1,1357.37,351.92Zm-34-28.24a2.05,2.05,0,0,1-1.17-.37c-4.56-3.16-9.29-6.22-14-9.07a2.06,2.06,0,1,1,2.12-3.53c4.83,2.9,9.63,6,14.27,9.22a2.06,2.06,0,0,1-1.18,3.75ZM1055.5,309.05a2.06,2.06,0,0,1-1-3.87c5-2.69,10.07-5.25,15.2-7.61a2.06,2.06,0,0,1,1.72,3.74c-5,2.33-10.08,4.85-15,7.49A2.07,2.07,0,0,1,1055.5,309.05ZM1285,301.71a2.1,2.1,0,0,1-.87-.19c-5-2.34-10.21-4.53-15.39-6.53a2.06,2.06,0,0,1,1.48-3.85c5.27,2,10.53,4.27,15.65,6.64a2.06,2.06,0,0,1-.87,3.93Zm-189-10.33a2.06,2.06,0,0,1-.66-4c5.36-1.81,10.83-3.46,16.28-4.91a2.06,2.06,0,0,1,1,4c-5.35,1.43-10.74,3.05-16,4.83A1.91,1.91,0,0,1,1096,291.38Zm147.46-4.74a2.5,2.5,0,0,1-.54-.07c-5.36-1.44-10.84-2.72-16.29-3.8a2.06,2.06,0,0,1,.8-4c5.54,1.1,11.11,2.4,16.56,3.86a2.06,2.06,0,0,1-.53,4.05ZM1139,280.89a2.06,2.06,0,0,1-.31-4.09c5.57-.86,11.25-1.54,16.87-2a2.06,2.06,0,0,1,.36,4.1c-5.53.48-11.12,1.15-16.61,2Zm61-2h-.18c-5.54-.49-11.15-.8-16.71-.92a2.06,2.06,0,0,1-2-2.1,2.08,2.08,0,0,1,2.1-2c5.65.12,11.36.43,17,.93a2.06,2.06,0,0,1-.18,4.11Z"/><path class="cls-43" d="M1427.09,588.19a2.28,2.28,0,0,1-.45,0,2.06,2.06,0,0,1-1.56-2.46c.58-2.65,1.13-5.32,1.63-8a2.06,2.06,0,1,1,4,.76q-.76,4.08-1.65,8.13A2.07,2.07,0,0,1,1427.09,588.19Z"/><path class="cls-44" d="M1362.4,597.26a3.06,3.06,0,0,0-.6-3.51l-26.49-26.28a162.41,162.41,0,0,0,3-52.57l29.27-23.1a3.06,3.06,0,0,0,1-3.41l-14.76-42.25a3.07,3.07,0,0,0-2.91-2.06l-37.28.15A162.77,162.77,0,0,0,1278.55,405l4.36-37a3.05,3.05,0,0,0-1.71-3.12l-40.31-19.44a3.06,3.06,0,0,0-3.51.6l-26.27,26.49a162.47,162.47,0,0,0-52.58-3l-23.09-29.27a3.07,3.07,0,0,0-3.42-1l-42.25,14.76a3.07,3.07,0,0,0-2.06,2.91l.15,37.28a162.77,162.77,0,0,0-39.27,35.08l-37-4.36a3.05,3.05,0,0,0-3.12,1.71L989,466.86a3.06,3.06,0,0,0,.6,3.51l26.49,26.28a162.41,162.41,0,0,0-3,52.57l-29.27,23.1a3.06,3.06,0,0,0-1,3.41L997.56,618a3.07,3.07,0,0,0,2.91,2.06l37.29-.15a162.35,162.35,0,0,0,35.08,39.27l-4.37,37.05a3.06,3.06,0,0,0,1.71,3.12l40.31,19.44a3.06,3.06,0,0,0,3.51-.6l26.28-26.49a162.41,162.41,0,0,0,52.57,3L1216,724a3.06,3.06,0,0,0,3.41,1l42.25-14.76a3.07,3.07,0,0,0,2.06-2.91l-.15-37.28a162.77,162.77,0,0,0,39.27-35.08l37,4.36a3.06,3.06,0,0,0,3.13-1.71Z"/><path class="cls-45" d="M1175.76,573.85a41.79,41.79,0,1,1,23-6.9A41.77,41.77,0,0,1,1175.76,573.85Zm-.15-79.48a37.81,37.81,0,1,0,7.64.78A38.1,38.1,0,0,0,1175.61,494.37Z"/><path class="cls-46" d="M1174.9,641.77a110,110,0,1,1,103.8-146.34h0a111.17,111.17,0,0,1,5.08,20.82c.09.66.18,1.32.26,2a2.28,2.28,0,0,1,0,.26,2.06,2.06,0,0,1-4.1.25,107,107,0,0,0-5.15-22,105.89,105.89,0,1,0-18.68,102.82,2.06,2.06,0,0,1,3.17,2.64,110.17,110.17,0,0,1-84.4,39.52Z"/><path class="cls-47" d="M941,346.87l-16-13.5a91.16,91.16,0,0,0-.66-29.5l15.32-14.2a1.7,1.7,0,0,0,.4-1.95l-10.12-23a1.71,1.71,0,0,0-1.71-1l-20.82,1.74a91,91,0,0,0-21.34-20.37l.8-20.89a1.75,1.75,0,0,0-1.1-1.67l-23.38-9.07a1.72,1.72,0,0,0-1.93.5L847,230a91.1,91.1,0,0,0-29.49.66l-14.21-15.33a1.73,1.73,0,0,0-2-.4L778.37,225a1.72,1.72,0,0,0-1,1.71l1.74,20.82a91.2,91.2,0,0,0-20.38,21.34l-20.89-.79a1.7,1.7,0,0,0-1.66,1.09l-9.07,23.38a1.7,1.7,0,0,0,.49,1.93l16,13.5a91.17,91.17,0,0,0,.66,29.5l-15.32,14.2a1.7,1.7,0,0,0-.4,1.95l10.12,22.95a1.7,1.7,0,0,0,1.71,1l20.82-1.74a90.81,90.81,0,0,0,21.34,20.38l-.8,20.89a1.72,1.72,0,0,0,1.1,1.67l23.38,9.06a1.71,1.71,0,0,0,1.93-.49l13.5-16a91.1,91.1,0,0,0,29.49-.66l14.21,15.32a1.72,1.72,0,0,0,2,.41l22.94-10.12a1.73,1.73,0,0,0,1-1.72l-1.74-20.82a91.17,91.17,0,0,0,20.38-21.33l20.88.79a1.71,1.71,0,0,0,1.67-1.09l9.07-23.38A1.72,1.72,0,0,0,941,346.87Z"/><path class="cls-48" d="M834.3,345a24.31,24.31,0,1,1,14.93-5.14A24.29,24.29,0,0,1,834.3,345Zm-.07-44.53a20,20,0,0,0-12.39,4.28,20.22,20.22,0,1,0,14.9-4.12A21.28,21.28,0,0,0,834.23,300.46Z"/><path class="cls-49" d="M944.07,400.29a2.09,2.09,0,0,1-1.19-.37,2.06,2.06,0,0,1-.49-2.87c1.55-2.19,3.06-4.47,4.47-6.76a2.06,2.06,0,1,1,3.5,2.16c-1.46,2.37-3,4.71-4.61,7A2.05,2.05,0,0,1,944.07,400.29Z"/><path class="cls-50" d="M838.87,457.08a2.06,2.06,0,0,1-.06-4.11,132.72,132.72,0,0,0,15.41-1.43,2.06,2.06,0,0,1,.62,4.08,138.55,138.55,0,0,1-15.9,1.46Zm-25.47-1.55-.32,0a137.81,137.81,0,0,1-15.59-3.38,2.06,2.06,0,0,1,1.1-4,134.08,134.08,0,0,0,15.13,3.29,2.06,2.06,0,0,1-.32,4.09Zm65.88-6.11a2.06,2.06,0,0,1-.69-4,130.27,130.27,0,0,0,14.25-6,2.06,2.06,0,0,1,1.83,3.69A136.57,136.57,0,0,1,880,449.3,2,2,0,0,1,879.28,449.42Zm-105.06-6.37a2,2,0,0,1-.92-.22,137.22,137.22,0,0,1-13.84-7.94,2.06,2.06,0,0,1,2.26-3.45,129,129,0,0,0,13.42,7.7,2.06,2.06,0,0,1-.92,3.91Zm141.24-13.2a2.06,2.06,0,0,1-1.25-3.7l1.47-1.13A133,133,0,0,0,926,416.09a2.06,2.06,0,0,1,2.85,3,137.29,137.29,0,0,1-10.63,9.21l-1.51,1.16A2.06,2.06,0,0,1,915.46,429.85ZM740.68,419.27a2.06,2.06,0,0,1-1.44-.59,139.89,139.89,0,0,1-10.78-11.76,2.06,2.06,0,0,1,3.2-2.6,134.73,134.73,0,0,0,10.45,11.41,2.06,2.06,0,0,1-1.43,3.54Zm-24.81-32.8a2.09,2.09,0,0,1-1.82-1.09,136.46,136.46,0,0,1-6.74-14.46,2.06,2.06,0,1,1,3.83-1.52,131.27,131.27,0,0,0,6.54,14,2.06,2.06,0,0,1-.84,2.79A2,2,0,0,1,715.87,386.47Z"/><path class="cls-51" d="M702.12,347.62a2,2,0,0,1-2-1.68c-.52-2.71-1-5.49-1.29-8.25a2.06,2.06,0,1,1,4.08-.51c.34,2.68.76,5.37,1.25,8a2.06,2.06,0,0,1-1.64,2.41Z"/><path class="cls-52" d="M726.25,242.63a2,2,0,0,1-1.22-.41,2.05,2.05,0,0,1-.43-2.88c1.66-2.23,3.41-4.44,5.19-6.55a2.06,2.06,0,1,1,3.15,2.65c-1.73,2.05-3.43,4.19-5,6.36A2.08,2.08,0,0,1,726.25,242.63Z"/><path class="cls-53" d="M961.56,279.49a2.06,2.06,0,0,1-1.95-1.4,131.29,131.29,0,0,0-5.73-14.1,2.06,2.06,0,1,1,3.72-1.77,134.69,134.69,0,0,1,5.91,14.55,2,2,0,0,1-1.29,2.61A1.91,1.91,0,0,1,961.56,279.49Zm-18.66-35.9a2,2,0,0,1-1.66-.84q-1.31-1.77-2.65-3.51c-2.22-2.85-4.58-5.63-7-8.27a2.06,2.06,0,1,1,3-2.79c2.5,2.72,4.93,5.59,7.23,8.53q1.39,1.78,2.72,3.61a2,2,0,0,1-.45,2.87A2,2,0,0,1,942.9,243.59Zm-193.62-25a2.08,2.08,0,0,1-1.6-.75,2.06,2.06,0,0,1,.29-2.9c.76-.62,1.53-1.24,2.31-1.84,3.34-2.61,6.85-5.09,10.4-7.38a2.06,2.06,0,1,1,2.23,3.47c-3.45,2.21-6.85,4.62-10.1,7.16-.76.58-1.5,1.18-2.24,1.78A2,2,0,0,1,749.28,218.57Zm165.17-3.75a2,2,0,0,1-1.23-.41,131.48,131.48,0,0,0-12.72-8.36,2.06,2.06,0,0,1,2.06-3.57,138,138,0,0,1,13.12,8.63,2.06,2.06,0,0,1,.42,2.88A2,2,0,0,1,914.45,214.82ZM784.1,198a2.06,2.06,0,0,1-.76-4,134.75,134.75,0,0,1,14.88-5,2.06,2.06,0,1,1,1.08,4,132.22,132.22,0,0,0-14.43,4.86A2.07,2.07,0,0,1,784.1,198Zm94.62-2.11a2,2,0,0,1-.68-.12,132.2,132.2,0,0,0-14.64-4.19,2.06,2.06,0,1,1,.91-4,138.19,138.19,0,0,1,15.09,4.32,2.06,2.06,0,0,1-.68,4Zm-55.23-7.14a2.06,2.06,0,0,1-.16-4.12c3.57-.28,7.2-.42,10.78-.42h0c1.63,0,3.25,0,4.88.08a2.06,2.06,0,0,1-.15,4.12c-1.59-.06-3.22-.11-4.77-.08-3.48,0-7,.13-10.45.41Z"/><path class="cls-54" d="M968.26,312.17a2.07,2.07,0,0,1-2-1.9c-.21-2.69-.5-5.4-.87-8a2.05,2.05,0,0,1,4.07-.57c.39,2.74.69,5.53.91,8.31a2.07,2.07,0,0,1-1.9,2.21Z"/><path class="cls-55" d="M833.85,383.08A62.56,62.56,0,1,1,891,295.28c.61,1.38,1.17,2.78,1.68,4.19a63.44,63.44,0,0,1,2.16,7.46c.08.35.15.69.22,1a2,2,0,0,1,0,.42,2.06,2.06,0,0,1-4.07.41,58.85,58.85,0,0,0-3.8-11.85h0a58.43,58.43,0,0,0-75.93-30.38l-.59.25-.54.24a58.45,58.45,0,1,0,71.29,87.26,2.06,2.06,0,0,1,3.74,1.19,2,2,0,0,1-.38,1.19,62.52,62.52,0,0,1-51,26.39Z"/><path class="cls-3" d="M276.21,1041.29a3.09,3.09,0,0,1-2.88-2l-2.93-7.62c-19.16-49.78-40.88-106.19-51.1-132.31a20.57,20.57,0,0,1,19.17-28.06h84.28a3.09,3.09,0,0,1,0,6.18H238.47a14.38,14.38,0,0,0-13.42,19.63c10.23,26.13,31.95,82.56,51.11,132.34l2.93,7.62a3.09,3.09,0,0,1-2.88,4.2Z"/><path class="cls-3" d="M310.3,1129.4a3,3,0,0,1-2.73-1.68c-.35-.68-2.11-5-18.79-48.31a3.09,3.09,0,0,1,5.76-2.22c4.38,11.38,17.73,46,18.56,47.8a3.09,3.09,0,0,1-2.8,4.41Z"/><path class="cls-6" d="M1980.27,1045.84a2.22,2.22,0,0,1-.76-.14,2.06,2.06,0,0,1-1.15-2.68l71.44-178.69a20,20,0,0,0-17.66-27.45l-129.56-6.09a2.06,2.06,0,1,1,.2-4.11l129.56,6.09a24.15,24.15,0,0,1,21.29,33.08l-71.45,178.7A2.05,2.05,0,0,1,1980.27,1045.84Z"/><path class="cls-6" d="M1850.22,828.33h-.1l-26.19-1.23a2.06,2.06,0,1,1,.2-4.11l26.18,1.22a2.06,2.06,0,0,1-.09,4.12Z"/><path class="cls-30" d="M1519,1304.52l-.49-4v0a1.05,1.05,0,1,1,2.09-.26h0l.46,4.15a1,1,0,0,1-2,.24Z"/><path class="cls-30" d="M1514.53,1280.43l-1-4v0a1.21,1.21,0,0,1,2.34-.61v0l1,4a1.19,1.19,0,0,1-2.3.59Z"/><path class="cls-30" d="M1507.2,1257l-1.48-3.82v0a1.36,1.36,0,0,1,2.54-1h0l1.44,3.88a1.33,1.33,0,0,1-2.49,1Z"/><path class="cls-30" d="M1497.22,1234.6l-1.93-3.6,0,0a1.52,1.52,0,1,1,2.67-1.44v0l1.92,3.68a1.49,1.49,0,0,1-2.64,1.39Z"/><path class="cls-30" d="M1484.47,1213.72l-2.41-3.29,0,0a1.67,1.67,0,1,1,2.7-2h0l2.41,3.39a1.64,1.64,0,0,1-2.67,1.92Z"/><path class="cls-30" d="M1468.85,1195l-2.87-2.87,0,0a1.82,1.82,0,0,1,2.58-2.58v0l2.91,3a1.8,1.8,0,0,1-2.55,2.53Z"/><path class="cls-30" d="M1450.47,1179l-3.31-2.35-.05,0a2,2,0,0,1,2.28-3.22h0l3.38,2.46a1.95,1.95,0,0,1-2.28,3.16Z"/><path class="cls-30" d="M1429.67,1166.35l-3.66-1.75,0,0a2.13,2.13,0,1,1,1.83-3.85l0,0,3.74,1.84a2.11,2.11,0,0,1-1.84,3.79Z"/><path class="cls-30" d="M1407.06,1157.38l-3.89-1.14-.06,0a2.28,2.28,0,1,1,1.29-4.38h0l4,1.22a2.26,2.26,0,0,1-1.3,4.32Z"/><path class="cls-30" d="M1383.34,1151.91l-4-.59h0a2.37,2.37,0,1,1,.69-4.69h0l4.12.63a2.36,2.36,0,0,1-.7,4.66Z"/><path class="cls-30" d="M1359.05,1149.65l-4.07-.1h0a2.46,2.46,0,0,1,.12-4.91h0l4.16.13a2.44,2.44,0,0,1-.13,4.88Z"/><path class="cls-30" d="M1334.62,1150.14l-4.07.32h0a2.54,2.54,0,1,1-.39-5.07h0l4.14-.29a2.53,2.53,0,0,1,.38,5Z"/><path class="cls-30" d="M1310.3,1152.93l-4,.66h0a2.62,2.62,0,1,1-.85-5.18h0l4.1-.64a2.61,2.61,0,0,1,.82,5.16Z"/><path class="cls-30" d="M1286.24,1157.61l-4,.94h0a2.71,2.71,0,1,1-1.25-5.28h0l4-.92a2.7,2.7,0,0,1,1.22,5.26Z"/><path class="cls-30" d="M1262.52,1163.86l-3.92,1.17h0a2.8,2.8,0,1,1-1.6-5.36h0l4-1.16a2.78,2.78,0,0,1,1.58,5.34Z"/><path class="cls-30" d="M1239.15,1171.41l-3.86,1.37h0a2.89,2.89,0,0,1-1.93-5.44h0l3.91-1.36a2.87,2.87,0,0,1,1.9,5.42Z"/><path class="cls-30" d="M1216.15,1180.06l-3.8,1.53h0a3,3,0,0,1-2.23-5.52h0l3.85-1.53a3,3,0,0,1,2.2,5.5Z"/><path class="cls-30" d="M1193.5,1189.63l-3.74,1.68h0a3.06,3.06,0,0,1-2.5-5.58h0l3.78-1.67a3,3,0,0,1,2.48,5.57Z"/><path class="cls-30" d="M1171,1199.91l-3.79,1.67a3.14,3.14,0,0,1-2.53-5.74h0l0,0,3.75-1.62,0,0a3.13,3.13,0,0,1,2.5,5.73Z"/><path class="cls-30" d="M1148.09,1209.43l-3.86,1.49A3.17,3.17,0,0,1,1142,1205h0l3.82-1.46h0a3.16,3.16,0,0,1,2.26,5.9Z"/><path class="cls-30" d="M1124.78,1218l-3.91,1.33a3.18,3.18,0,1,1-2.06-6h0l3.88-1.32h0a3.18,3.18,0,0,1,2,6Z"/><path class="cls-30" d="M1101.21,1225.67l-4,1.22a3.21,3.21,0,0,1-1.89-6.13h0l3.93-1.2h0a3.2,3.2,0,1,1,1.88,6.12Z"/><path class="cls-30" d="M1077.44,1232.7l-4,1.11a3.22,3.22,0,1,1-1.73-6.21h0l4-1.1h0a3.22,3.22,0,0,1,1.73,6.21Z"/><path class="cls-30" d="M1053.51,1239.13l-4,1a3.25,3.25,0,0,1-1.6-6.29h0l4-1h0a3.24,3.24,0,1,1,1.59,6.28Z"/><path class="cls-30" d="M1029.46,1245l-4,.93a3.26,3.26,0,1,1-1.48-6.36h0l4-.93h0a3.26,3.26,0,1,1,1.48,6.36Z"/><path class="cls-30" d="M1005.3,1250.46l-4,.86a3.29,3.29,0,0,1-1.37-6.43h0l4-.85a3.28,3.28,0,0,1,1.38,6.42Z"/><path class="cls-30" d="M981,1255.45l-4,.79a3.31,3.31,0,1,1-1.27-6.49h0l4-.78a3.31,3.31,0,0,1,1.27,6.49Z"/><path class="cls-30" d="M956.71,1260l-4.06.73a3.33,3.33,0,0,1-1.17-6.56h0l4-.71a3.32,3.32,0,1,1,1.17,6.54Z"/><path class="cls-30" d="M932.31,1264.21l-4.07.66a3.35,3.35,0,0,1-1.07-6.61h0l4.06-.66a3.35,3.35,0,1,1,1.07,6.61Z"/><path class="cls-30" d="M907.58,1268.07l-4.08.6a3.37,3.37,0,0,1-1-6.67h0l4.07-.59a3.37,3.37,0,1,1,1,6.66Z"/><path class="cls-30" d="M882.62,1271.58l-4.09.55a3.39,3.39,0,1,1-.89-6.73h0l4.08-.53a3.38,3.38,0,1,1,.89,6.71Z"/><path class="cls-30" d="M857.45,1274.76l-4.1.49a3.41,3.41,0,1,1-.8-6.78h0l4.09-.48a3.41,3.41,0,0,1,.8,6.77Z"/><path class="cls-30" d="M832.85,1277.52l-4.1.43a3.43,3.43,0,0,1-.71-6.83h0l4.09-.42a3.43,3.43,0,1,1,.71,6.82Z"/><path class="cls-30" d="M808.22,1280l-4.11.37a3.45,3.45,0,1,1-.62-6.87h0l4.09-.37a3.45,3.45,0,1,1,.63,6.87Z"/><path class="cls-30" d="M783.56,1282.05l-4.11.32a3.48,3.48,0,1,1-.54-6.93h0l4.1-.31a3.47,3.47,0,1,1,.54,6.92Z"/><path class="cls-30" d="M758.87,1283.82l-4.11.27a3.5,3.5,0,1,1-.45-7h0l4.1-.26a3.49,3.49,0,0,1,.45,7Z"/><path class="cls-30" d="M734.16,1285.26l-4.12.21a3.51,3.51,0,1,1-.35-7h0l4.11-.2a3.51,3.51,0,1,1,.35,7Z"/><path class="cls-30" d="M709.44,1286.37l-4.13.16a3.54,3.54,0,0,1-.26-7.07h0l4.1-.15a3.53,3.53,0,1,1,.27,7.06Z"/><path class="cls-30" d="M684.7,1287.12l-4.13.08a3.52,3.52,0,0,1-.15-7l4.11-.1a3.53,3.53,0,0,1,.18,7Z"/><path class="cls-30" d="M660,1287.5l-4.13,0a3.5,3.5,0,0,1-.05-7l4.11,0a3.5,3.5,0,0,1,.08,7Z"/><path class="cls-30" d="M635.19,1287.54l-4.12,0a3.48,3.48,0,1,1,0-7l4.11,0a3.48,3.48,0,1,1,0,7Z"/><path class="cls-30" d="M610.44,1287.22l-4.13-.09a3.46,3.46,0,0,1,.16-6.92l4.11.08a3.47,3.47,0,0,1-.13,6.93Z"/><path class="cls-30" d="M585.69,1286.52l-4.12-.15a3.44,3.44,0,1,1,.26-6.87l4.1.14a3.44,3.44,0,1,1-.22,6.88Z"/><path class="cls-30" d="M561,1285.44l-4.12-.22a3.42,3.42,0,1,1,.36-6.83l4.11.21a3.42,3.42,0,1,1-.34,6.84Z"/><path class="cls-30" d="M536.24,1284l-4.12-.28a3.4,3.4,0,0,1,.48-6.79l4.1.28a3.41,3.41,0,0,1-.44,6.8Z"/><path class="cls-30" d="M511.55,1282.05l-4.11-.36A3.38,3.38,0,0,1,508,1275l4.1.36a3.38,3.38,0,0,1-.56,6.74Z"/><path class="cls-30" d="M486.9,1279.69l-4.11-.43a3.36,3.36,0,0,1,.71-6.68h0l4.08.43h0a3.36,3.36,0,1,1-.7,6.68Z"/><path class="cls-30" d="M462.29,1276.87l-4.1-.51a3.34,3.34,0,0,1,.84-6.63h0l4.08.51h0a3.34,3.34,0,0,1-.83,6.63Z"/><path class="cls-30" d="M437.74,1273.56l-4.09-.61a3.32,3.32,0,1,1,1-6.56h0l4.06.59h0a3.32,3.32,0,1,1-1,6.58Z"/><path class="cls-30" d="M413.26,1269.71l-4.07-.7a3.3,3.3,0,1,1,1.11-6.5h0l4,.69h0a3.3,3.3,0,0,1-1.11,6.51Z"/><path class="cls-30" d="M388.87,1265.29l-4.05-.79a3.28,3.28,0,1,1,1.26-6.44h0l4,.78h0a3.28,3.28,0,0,1-1.25,6.44Z"/><path class="cls-30" d="M364.6,1260.27l-4-.9A3.26,3.26,0,0,1,362,1253h0l4,.89h0a3.26,3.26,0,1,1-1.41,6.37Z"/><path class="cls-30" d="M340.46,1254.58l-4-1a3.24,3.24,0,1,1,1.59-6.28h0l4,1h0a3.24,3.24,0,0,1-1.58,6.28Z"/><path class="cls-30" d="M316.5,1248.18l-4-1.14a3.22,3.22,0,0,1,1.78-6.19h0l3.94,1.12h0a3.22,3.22,0,0,1-1.77,6.19Z"/><path class="cls-30" d="M292.75,1241l-3.94-1.28a3.2,3.2,0,0,1,2-6.08h0l3.9,1.26h0a3.2,3.2,0,1,1-2,6.09Z"/><path class="cls-30" d="M269.26,1233l-3.88-1.43a3.17,3.17,0,1,1,2.19-6h0l3.84,1.41h0a3.18,3.18,0,1,1-2.18,6Z"/><path class="cls-30" d="M246.11,1224l-3.83-1.59a3.16,3.16,0,0,1,2.44-5.83h0l3.78,1.57h0a3.16,3.16,0,1,1-2.42,5.84Z"/><path class="cls-30" d="M223.37,1214l-3.74-1.78a3.12,3.12,0,0,1,2.68-5.63h0l3.7,1.74h0a3.13,3.13,0,0,1-2.67,5.66Z"/><path class="cls-30" d="M201.17,1202.76l-3.64-2a3.05,3.05,0,0,1,2.92-5.36h0l3.6,1.94,0,0a3.06,3.06,0,0,1-2.91,5.39Z"/><path class="cls-30" d="M179.62,1190.3l-3.51-2.21a3,3,0,0,1,3.18-5.07h0l3.47,2.16,0,0a3,3,0,0,1-3.17,5.1Z"/><path class="cls-30" d="M158.92,1176.46l-3.36-2.45a2.93,2.93,0,0,1,3.46-4.73h0l3.31,2.39,0,0a2.94,2.94,0,0,1-3.45,4.77Z"/><path class="cls-30" d="M139.27,1161.12l-3.15-2.7a2.87,2.87,0,0,1,3.74-4.36l0,0,3.11,2.64,0,0a2.88,2.88,0,1,1-3.74,4.39Z"/><path class="cls-30" d="M121,1144.19l-2.9-3a2.81,2.81,0,0,1,4-3.92l0,0,2.85,2.9,0,0a2.82,2.82,0,0,1-4,4Z"/><path class="cls-30" d="M104.29,1125.59l-2.59-3.26a2.75,2.75,0,0,1,4.31-3.42l0,0,2.55,3.17,0,0a2.76,2.76,0,1,1-4.3,3.46Z"/><path class="cls-30" d="M89.63,1105.36l-2.22-3.52A2.69,2.69,0,1,1,92,1099l0,0,2.19,3.42,0,0a2.7,2.7,0,0,1-4.55,2.9Z"/><path class="cls-30" d="M77.31,1083.61l-1.8-3.76a2.62,2.62,0,0,1,4.73-2.27l0,0,1.78,3.66,0,0a2.64,2.64,0,1,1-4.74,2.31Z"/><path class="cls-30" d="M67.61,1060.58l-1.36-3.95a2.57,2.57,0,0,1,4.86-1.66v0l1.34,3.84v0a2.57,2.57,0,0,1-4.86,1.7Z"/><path class="cls-30" d="M60.66,1036.57l-.88-4.07a2.5,2.5,0,0,1,4.89-1.06v0l.89,4v0a2.52,2.52,0,0,1-4.91,1.1Z"/><path class="cls-30" d="M56.49,1012l-.43-4.14a2.44,2.44,0,0,1,4.86-.51v0l.45,4v.05a2.45,2.45,0,0,1-4.87.53Z"/><path class="cls-30" d="M55,987.07v-4.16a2.38,2.38,0,1,1,4.76,0v0l0,4.08v0a2.39,2.39,0,0,1-4.78,0Z"/><path class="cls-30" d="M55.84,962.17,56.2,958a2.32,2.32,0,1,1,4.62.4v0l-.34,4.07v0a2.33,2.33,0,0,1-4.65-.39Z"/><path class="cls-30" d="M58.86,937.47l.7-4.08a2.24,2.24,0,0,1,4.42.73v0l-.66,4v0a2.26,2.26,0,1,1-4.46-.73Z"/><path class="cls-30" d="M63.79,913.11l1-4a2.13,2.13,0,0,1,4.15,1v0l-.93,4v0a2.15,2.15,0,0,1-4.19-1Z"/><path class="cls-30" d="M70.32,889.16l1.23-3.95a2,2,0,0,1,3.87,1.19v0l-1.19,3.92v0a2,2,0,0,1-3.91-1.18Z"/><path class="cls-30" d="M78.24,865.65l1.44-3.87a1.92,1.92,0,0,1,3.6,1.31v0L81.88,867h0a1.93,1.93,0,1,1-3.63-1.31Z"/><path class="cls-30" d="M87.35,842.59,89,838.8a1.81,1.81,0,0,1,3.33,1.4h0L90.72,844h0a1.82,1.82,0,1,1-3.37-1.4Z"/><path class="cls-30" d="M97.49,820l1.78-3.73a1.71,1.71,0,0,1,2.27-.8,1.69,1.69,0,0,1,.8,2.25h0l-1.74,3.72h0A1.72,1.72,0,0,1,97.49,820Z"/><path class="cls-30" d="M108.53,797.82l1.91-3.66a1.59,1.59,0,0,1,2.82,1.47l-1.88,3.66a1.6,1.6,0,1,1-2.86-1.45Z"/><path class="cls-30" d="M120.34,776.06l2-3.58a1.48,1.48,0,0,1,2.58,1.45l-2,3.59a1.49,1.49,0,1,1-2.62-1.44Z"/><path class="cls-30" d="M132.83,754.7l2.15-3.52a1.37,1.37,0,0,1,2.34,1.42l-2.1,3.53a1.39,1.39,0,0,1-2.4-1.41Z"/><path class="cls-30" d="M145.93,733.72l2.24-3.47a1.26,1.26,0,0,1,2.12,1.37l-2.2,3.47a1.28,1.28,0,0,1-1.76.41,1.29,1.29,0,0,1-.41-1.77Z"/><path class="cls-30" d="M159.57,713.08l2.32-3.4a1.15,1.15,0,0,1,1.6-.31,1.16,1.16,0,0,1,.31,1.6l-2.29,3.42a1.16,1.16,0,0,1-1.62.33,1.18,1.18,0,0,1-.33-1.63Z"/><path class="cls-30" d="M173.68,692.78l2.4-3.36a1,1,0,0,1,1.45-.24,1.05,1.05,0,0,1,.25,1.46L175.42,694a1.06,1.06,0,1,1-1.75-1.21Z"/><path class="cls-56" d="M405.47,973.27l-3.86-11.69v0a1.78,1.78,0,1,1,3.37-1.12h0l3.86,11.77a1.76,1.76,0,0,1-3.35,1.1Z"/><path class="cls-57" d="M393.36,938.33l-4.18-11.63a1.83,1.83,0,1,1,3.44-1.23h0l4.14,11.63a1.81,1.81,0,0,1-3.4,1.22Z"/><path class="cls-58" d="M381.08,903.33l-3.84-11.77a1.87,1.87,0,1,1,3.56-1.17h0v0l3.79,11.72v0a1.86,1.86,0,0,1-3.53,1.15Z"/><path class="cls-59" d="M370.15,867.82l-3.19-12a1.92,1.92,0,0,1,3.71-1h0v0l3.14,11.9v0a1.91,1.91,0,0,1-3.69,1Z"/><path class="cls-60" d="M361.35,831.7,359,819.54a2,2,0,1,1,3.87-.76h0v.05l2.34,12.08V831a2,2,0,0,1-3.84.74Z"/><path class="cls-61" d="M355.06,795.05l-1.49-12.31a2,2,0,0,1,4-.49h0v0L359,794.52v.05a2,2,0,0,1-4,.48Z"/><path class="cls-62" d="M351.48,758l-.6-12.39a2.07,2.07,0,0,1,4.14-.2h0v0l.55,12.29v.05a2.05,2.05,0,0,1-4.1.19Z"/><path class="cls-63" d="M350.59,720.84l.3-12.39a2.12,2.12,0,0,1,4.24.1h0v.05l-.33,12.3V721a2.11,2.11,0,0,1-4.21-.11Z"/><path class="cls-64" d="M352.33,683.69l1.13-12.35a2.17,2.17,0,1,1,4.32.4h0v0L356.62,684v.05a2.17,2.17,0,0,1-2.35,1.94A2.14,2.14,0,0,1,352.33,683.69Z"/><path class="cls-65" d="M356.5,646.74l1.9-12.25a2.22,2.22,0,0,1,4.39.68h0v0l-1.92,12.16v0a2.21,2.21,0,0,1-4.36-.68Z"/><path class="cls-66" d="M362.92,610.12,365.53,598a2.27,2.27,0,1,1,4.43,1h0v0l-2.61,12v0a2.26,2.26,0,0,1-4.41-1Z"/><path class="cls-67" d="M371.41,573.91,374.76,562a2.32,2.32,0,1,1,4.46,1.25h0l0,0-3.34,11.84,0,0a2.3,2.3,0,1,1-4.43-1.25Z"/><path class="cls-68" d="M382.26,538.32l4.17-11.69a2.37,2.37,0,0,1,4.46,1.59h0l0,0-4.16,11.57,0,0a2.35,2.35,0,0,1-4.43-1.58Z"/><path class="cls-69" d="M395.56,503.56l5-11.37a2.41,2.41,0,1,1,4.42,1.93h0l0,.05L400,505.43l0,.05a2.4,2.4,0,1,1-4.39-1.92Z"/><path class="cls-70" d="M411.21,469.8l5.72-11a2.47,2.47,0,0,1,4.38,2.27h0l0,.05L415.58,472l0,.05a2.45,2.45,0,0,1-4.34-2.26Z"/><path class="cls-71" d="M429.12,437.17l6.45-10.6a2.51,2.51,0,0,1,4.29,2.61h0l0,.05-6.42,10.48,0,0a2.5,2.5,0,0,1-4.26-2.6Z"/><path class="cls-72" d="M449.16,405.81l7.13-10.15a2.56,2.56,0,1,1,4.19,2.94h0l0,0-7.1,10.05,0,0a2.54,2.54,0,0,1-4.16-2.93Z"/><path class="cls-73" d="M471.22,375.83l7.77-9.66a2.57,2.57,0,1,1,4,3.22h0l0,.05L475.26,379l0,0a2.57,2.57,0,1,1-4-3.23Z"/><path class="cls-74" d="M495.13,347.32l8.36-9.16a2.58,2.58,0,1,1,3.82,3.48h0l0,0-8.3,9.09,0,0a2.59,2.59,0,0,1-3.82-3.49Z"/><path class="cls-75" d="M520.75,320.34l8.9-8.64a2.6,2.6,0,0,1,3.62,3.72h0l0,0L524.4,324l0,0a2.6,2.6,0,0,1-3.62-3.72Z"/><path class="cls-76" d="M547.94,294.94l9.38-8.11a2.61,2.61,0,1,1,3.41,3.94h0l0,0-9.31,8,0,0a2.6,2.6,0,1,1-3.4-3.94Z"/><path class="cls-77" d="M576.54,271.15l9.83-7.56a2.62,2.62,0,0,1,3.19,4.15h0l0,0-9.75,7.5,0,0a2.62,2.62,0,0,1-3.19-4.15Z"/><path class="cls-78" d="M606.44,249l10.24-7a2.63,2.63,0,0,1,3,4.34h0l0,0-10.15,6.94,0,0a2.63,2.63,0,0,1-3-4.33Z"/><path class="cls-79" d="M637.52,228.58l10.6-6.43a2.64,2.64,0,1,1,2.74,4.51h0l0,0-10.53,6.38,0,0a2.64,2.64,0,0,1-2.73-4.51Z"/><path class="cls-80" d="M669.66,209.86,680.59,204a2.65,2.65,0,0,1,2.5,4.67h0l0,0-10.85,5.8,0,0a2.64,2.64,0,1,1-2.5-4.66Z"/><path class="cls-81" d="M702.75,192.88,714,187.61a2.66,2.66,0,1,1,2.26,4.82h0l0,0-11.14,5.22,0,0a2.66,2.66,0,1,1-2.26-4.81Z"/><path class="cls-82" d="M736.7,177.69,748.19,173a2.67,2.67,0,1,1,2,4.95h0l0,0-11.41,4.62h0a2.67,2.67,0,1,1-2-4.94Z"/><path class="cls-83" d="M771.42,164.33l11.72-4a2.69,2.69,0,0,1,1.75,5.08h0l-11.63,4-.05,0a2.68,2.68,0,1,1-1.74-5.07Z"/><path class="cls-84" d="M806.8,152.86l11.93-3.4a2.7,2.7,0,1,1,1.47,5.19h0L808.32,158h-.05a2.69,2.69,0,1,1-1.47-5.17Z"/><path class="cls-85" d="M842.77,143.34l12.1-2.72a2.71,2.71,0,0,1,1.19,5.28H856l-12,2.69h0a2.7,2.7,0,1,1-1.18-5.27Z"/><path class="cls-86" d="M879.21,135.87l12.24-2a2.72,2.72,0,1,1,.89,5.36h-.05l-12.14,2h0a2.71,2.71,0,0,1-.89-5.35Z"/><path class="cls-87" d="M916,130.53l12.35-1.28a2.72,2.72,0,0,1,.56,5.42h-.06l-12.23,1.26h0a2.72,2.72,0,0,1-.57-5.42Z"/><path class="cls-88" d="M953.14,127.45l12.4-.5a2.74,2.74,0,1,1,.22,5.48h-.06l-12.28.49h-.06a2.74,2.74,0,0,1-.22-5.47Z"/><path class="cls-89" d="M990.37,126.78l12.41.34a2.75,2.75,0,1,1-.15,5.49h-.07l-12.28-.34h-.06a2.75,2.75,0,0,1,.15-5.49Z"/><path class="cls-90" d="M1027.57,128.67l12.35,1.23a2.76,2.76,0,1,1-.54,5.49h-.07l-12.22-1.23H1027a2.76,2.76,0,0,1,.55-5.49Z"/><path class="cls-91" d="M1064.53,133.15l12.24,2a2.77,2.77,0,1,1-.89,5.47h-.06l-12.13-2h-.06a2.77,2.77,0,0,1,.9-5.46Z"/><path class="cls-92" d="M1101.13,139.92l12.1,2.78a2.78,2.78,0,1,1-1.24,5.42h-.06l-12-2.76h-.06a2.78,2.78,0,1,1,1.24-5.42Z"/><path class="cls-93" d="M1137.23,149l11.89,3.55a2.79,2.79,0,1,1-1.6,5.35h-.06l-11.77-3.53-.06,0a2.79,2.79,0,0,1,1.6-5.34Z"/><path class="cls-94" d="M1172.66,160.48l11.63,4.33a2.8,2.8,0,1,1-2,5.25h0l-.06,0-11.52-4.29,0,0a2.8,2.8,0,1,1,2-5.24Z"/><path class="cls-95" d="M1207.26,174.24l11.33,5.08a2.81,2.81,0,1,1-2.31,5.13h0l-.06,0-11.21-5,0,0a2.81,2.81,0,0,1,2.3-5.12Z"/><path class="cls-96" d="M1240.89,190.21l11,5.8a2.83,2.83,0,1,1-2.64,5h0l0,0-10.86-5.75-.06,0a2.82,2.82,0,0,1,2.64-5Z"/><path class="cls-97" d="M1273.44,208.28l10.59,6.46a2.83,2.83,0,1,1-3,4.84h0l0,0-10.49-6.41,0,0a2.83,2.83,0,1,1,3-4.83Z"/><path class="cls-98" d="M1304.83,228.27l10.2,7a2.84,2.84,0,1,1-3.23,4.68h0l0,0-10.11-7,0,0a2.84,2.84,0,1,1,3.23-4.67Z"/><path class="cls-99" d="M1335,250l9.81,7.59a2.86,2.86,0,1,1-3.5,4.52h0l0,0-9.72-7.53,0,0A2.86,2.86,0,0,1,1335,250Z"/><path class="cls-100" d="M1364.08,273.23l9.42,8a2.87,2.87,0,1,1-3.72,4.36h0l0,0-9.35-8,0,0a2.86,2.86,0,1,1,3.72-4.35Z"/><path class="cls-101" d="M1392,297.8l9.06,8.45a2.88,2.88,0,1,1-3.92,4.21h0l0,0-9-8.4,0,0a2.87,2.87,0,0,1,3.92-4.2Z"/><path class="cls-102" d="M1418.83,323.5l8.73,8.79a2.89,2.89,0,0,1-4.1,4.07h0l0,0-8.68-8.74,0,0a2.89,2.89,0,0,1,4.09-4.07Z"/><path class="cls-103" d="M1444.72,350.14l8.44,9.06a2.9,2.9,0,1,1-4.24,3.95h0l0,0-8.4-9,0,0a2.9,2.9,0,0,1,4.24-3.95Z"/><path class="cls-104" d="M1469.78,377.55l8.19,9.27a2.91,2.91,0,1,1-4.36,3.85h0l-8.16-9.25,0,0a2.9,2.9,0,0,1,4.36-3.84Z"/><path class="cls-105" d="M1494.15,405.55l8,9.44a2.92,2.92,0,1,1-4.46,3.77h0l-8-9.42h0a2.92,2.92,0,0,1,4.46-3.77Z"/><path class="cls-106" d="M1518,434l7.85,9.55a2.93,2.93,0,1,1-4.53,3.72h0l-7.83-9.54h0A2.93,2.93,0,0,1,1518,434Z"/><path class="cls-107" d="M1541.43,462.71l7.77,9.61a2.94,2.94,0,0,1-4.58,3.7h0l-7.76-9.61a2.94,2.94,0,0,1,4.57-3.7Z"/><path class="cls-108" d="M1564.71,491.55l7.76,9.6a3,3,0,1,1-4.58,3.72h0l-7.76-9.61a2.95,2.95,0,1,1,4.59-3.7Z"/><path class="cls-109" d="M1588.05,520.31l7.83,9.53h0a3,3,0,0,1-4.58,3.76h0l-7.85-9.56a3,3,0,0,1,4.58-3.75Z"/><path class="cls-110" d="M1611.69,548.78l8,9.38,0,0a3,3,0,0,1-4.53,3.86h0l-8-9.42a3,3,0,0,1,4.52-3.86Z"/><path class="cls-111" d="M1635.93,576.69l8.28,9.11,0,0a3,3,0,1,1-4.42,4h0l-8.33-9.17a3,3,0,0,1,4.42-4Z"/><path class="cls-112" d="M1661.15,603.65l8.7,8.69,0,0a3,3,0,0,1-4.23,4.24h0l-8.78-8.78a3,3,0,1,1,4.23-4.23Z"/><path class="cls-113" d="M1687.78,629.13l9.27,8,.07.06a3,3,0,1,1-3.94,4.54h0l-9.4-8.15a3,3,0,0,1,3.94-4.54Z"/><path class="cls-114" d="M1716.3,652.31l10,7,.1.07a3,3,0,1,1-3.46,4.94h0l-10.21-7.17a3,3,0,0,1,3.46-4.93Z"/><path class="cls-115" d="M1747.18,672q5.35,2.91,10.86,5.52a3,3,0,0,1-2.59,5.47h0c-3.78-1.79-7.49-3.69-11.16-5.68a3,3,0,0,1,2.89-5.31Z"/><path class="cls-116" d="M1780.6,686.6q5.78,1.92,11.65,3.43a3,3,0,0,1-1.51,5.89h0c-4-1-8.07-2.23-12-3.54a3,3,0,0,1,1.91-5.77Z"/><path class="cls-117" d="M1816.1,694.41q6,.68,12.1.91a3,3,0,0,1-.23,6.09h0q-6.27-.24-12.53-.94a3,3,0,0,1,.67-6.06Z"/><path class="cls-118" d="M1852,693.64a75.26,75.26,0,0,0,11.31-3.55,3.06,3.06,0,1,1,2.28,5.68h0a81.41,81.41,0,0,1-12.23,3.83,3.06,3.06,0,0,1-1.36-6Z"/><path class="cls-119" d="M1883.84,678.15a100.84,100.84,0,0,0,9-7.9,3.07,3.07,0,0,1,4.31,4.37h0a106,106,0,0,1-9.56,8.38,3.07,3.07,0,0,1-3.76-4.85Z"/><path class="cls-120" d="M1908,651.64c2.21-3.35,4.26-6.82,6.13-10.37a3.08,3.08,0,1,1,5.45,2.88h0q-3,5.6-6.44,10.88a3.08,3.08,0,1,1-5.14-3.39Z"/><path class="cls-121" d="M1923.35,619a120.08,120.08,0,0,0,3-11.67,3,3,0,0,1,6,1.18,126,126,0,0,1-3,12.29,3.08,3.08,0,0,1-5.9-1.78Z"/><path class="cls-122" d="M1928.42,583.4c0-4-.23-8.11-.51-12.17a2.93,2.93,0,0,1,5.84-.42c.31,4.15.53,8.32.6,12.51a3,3,0,0,1-5.93.1Z"/><path class="cls-123" d="M1925.18,546.91l-2-12.11v-.08a2.81,2.81,0,0,1,5.54-.92l2.07,12.26a2.84,2.84,0,0,1-5.61,1v0Z"/><path class="cls-124" d="M1918.4,510.72l-2.77-12,0-.06a2.56,2.56,0,0,1,5-1.2l3,12a2.67,2.67,0,1,1-5.17,1.3v0Z"/><path class="cls-125" d="M1909.32,475l-3.54-11.78v-.05a2.23,2.23,0,0,1,4.25-1.32l3.78,11.82a2.34,2.34,0,0,1-4.45,1.42v0Z"/><path class="cls-126" d="M1897.92,439.87l-4.4-11.48,0-.06a1.76,1.76,0,0,1,3.28-1.3l4.77,11.46A1.94,1.94,0,0,1,1898,440l0,0Z"/><path class="cls-127" d="M1883.35,406.06c-1.89-3.62-3.89-7.18-6.1-10.6a1.15,1.15,0,0,1,1.91-1.29c2.4,3.41,4.58,6.95,6.64,10.55a1.4,1.4,0,1,1-2.42,1.39Z"/><polygon class="cls-30" points="176.88 648.16 191.33 676.81 204.52 654.71 176.88 648.16"/><path class="cls-6" d="M297.41,566.73,254.28,673.62A8.11,8.11,0,0,1,243.42,678L137.73,630.64a3.26,3.26,0,0,1,.22-6Z"/><polygon class="cls-30" points="176.89 648.16 297.41 566.73 193.92 655.86 197.59 663.97 176.89 648.16"/><polygon class="cls-30" points="204.05 660.34 191.33 676.81 193.92 655.86 204.05 660.34"/><polygon class="cls-30" points="1871.47 329.72 1847.37 365.95 1833.2 334.06 1871.47 329.72"/><path class="cls-6" d="M1722.4,200.59l40.76,150.87a11,11,0,0,0,13.89,7.65L1927,312.48a4.41,4.41,0,0,0,.68-8.15Z"/><polygon class="cls-30" points="1871.45 329.72 1722.4 200.59 1847.28 337.32 1841.02 347.65 1871.45 329.72"/><polygon class="cls-30" points="1832.91 341.72 1847.37 365.95 1847.28 337.32 1832.91 341.72"/></g></g></g></svg>
